<?xml version="1.0" standalone="no"?>
<!DOCTYPE svg PUBLIC "-//W3C//DTD SVG 20010904//EN"
 "http://www.w3.org/TR/2001/REC-SVG-20010904/DTD/svg10.dtd">
<svg version="1.0" xmlns="http://www.w3.org/2000/svg"
 width="1359.000000pt" height="600.000000pt" viewBox="0 0 1359.000000 600.000000"
 preserveAspectRatio="xMidYMid meet">

<g transform="translate(0.000000,600.000000) scale(0.100000,-0.100000)"
fill="#000000" stroke="none">
<path d="M5894 5695 c-4 -9 -2 -21 4 -27 15 -15 44 -1 40 19 -4 23 -36 29 -44
8z"/>
<path d="M6154 5695 c-4 -9 -2 -21 4 -27 15 -15 44 -1 40 19 -4 23 -36 29 -44
8z"/>
<path d="M310 5635 c0 -37 4 -65 10 -65 6 0 10 16 10 36 0 28 3 35 18 32 10
-2 19 -16 24 -38 6 -32 6 -31 5 10 -2 40 -5 45 -24 44 -18 0 -23 5 -23 23 0
13 -4 23 -10 23 -6 0 -10 -28 -10 -65z"/>
<path d="M1083 5635 c0 -48 2 -59 6 -35 9 50 41 55 41 6 0 -20 5 -36 10 -36
12 0 13 60 1 79 -5 8 -16 11 -29 7 -17 -6 -21 -2 -25 21 -2 15 -4 -3 -4 -42z"/>
<path d="M1660 5641 c0 -33 5 -63 11 -66 15 -10 15 -7 11 63 -5 79 -22 81 -22
3z"/>
<path d="M164 5645 c14 -89 28 -99 47 -32 l13 42 9 -42 c12 -53 33 -56 42 -5
3 20 9 47 12 60 3 12 1 22 -5 22 -5 0 -13 -21 -17 -47 l-8 -48 -14 48 c-16 55
-30 53 -39 -4 -7 -44 -24 -35 -24 13 0 15 -5 30 -11 34 -9 5 -10 -6 -5 -41z"/>
<path d="M987 5672 c-33 -37 -12 -102 33 -102 31 0 33 18 3 22 -25 3 -28 7
-28 38 0 31 3 35 28 38 15 2 25 8 22 13 -10 15 -41 10 -58 -9z"/>
<path d="M1376 5634 c-10 -31 -15 -58 -12 -61 3 -3 8 2 12 11 8 20 54 22 54 1
0 -8 5 -15 10 -15 13 0 13 4 -7 67 -9 29 -22 53 -28 53 -6 0 -19 -25 -29 -56z
m43 -6 c1 -5 -6 -8 -15 -8 -11 0 -14 5 -10 16 3 9 6 21 7 27 0 12 17 -20 18
-35z"/>
<path d="M502 5664 c-6 -7 -10 -19 -8 -26 3 -7 7 -25 10 -40 5 -21 12 -28 29
-28 20 1 20 2 5 11 -21 11 -24 55 -6 61 10 4 9 8 -2 20 -13 12 -18 13 -28 2z"/>
<path d="M1267 5667 c-2 -7 -2 -30 2 -52 5 -30 11 -40 26 -42 11 -2 14 0 8 3
-17 7 -17 61 -1 66 9 3 8 9 -4 21 -20 20 -24 21 -31 4z"/>
<path d="M5438 5593 c-15 -49 -30 -96 -33 -105 -6 -14 -2 -18 18 -18 18 0 27
7 31 25 5 21 12 25 41 25 29 0 36 -4 41 -25 4 -18 13 -25 31 -25 20 0 24 4 18
18 -3 9 -18 56 -33 105 -26 84 -27 87 -57 87 -30 0 -31 -3 -57 -87z m60 -31
c-28 -5 -29 -1 -16 44 l11 39 12 -40 c11 -37 10 -40 -7 -43z"/>
<path d="M5776 5656 c-4 -15 -11 -26 -16 -26 -6 0 -10 -7 -10 -15 0 -8 5 -15
10 -15 6 0 10 -21 10 -46 0 -64 13 -84 55 -84 39 0 46 14 15 30 -25 14 -30
100 -5 100 8 0 15 7 15 15 0 8 -6 15 -14 15 -8 0 -16 10 -18 22 -4 33 -34 35
-42 4z"/>
<path d="M6256 5656 c-4 -15 -11 -26 -16 -26 -6 0 -10 -7 -10 -15 0 -8 5 -15
10 -15 6 0 10 -21 10 -46 0 -64 13 -84 55 -84 39 0 46 14 15 30 -25 14 -30
100 -5 100 8 0 15 7 15 15 0 8 -6 15 -14 15 -8 0 -16 10 -18 22 -4 33 -34 35
-42 4z"/>
<path d="M6610 5575 c0 -98 1 -105 20 -105 18 0 20 7 21 73 l0 72 23 -60 c30
-79 47 -81 72 -8 l19 58 3 -67 c3 -60 5 -68 22 -68 19 0 20 7 20 106 l0 105
-27 -3 c-23 -3 -29 -12 -48 -67 l-22 -63 -24 66 c-22 60 -26 66 -51 66 l-28 0
0 -105z"/>
<path d="M415 5651 c-3 -5 7 -11 22 -13 l28 -4 -27 -12 c-17 -7 -28 -19 -28
-31 0 -17 6 -20 35 -19 30 1 35 5 35 25 0 13 -5 33 -10 44 -11 20 -45 26 -55
10z m45 -50 c0 -12 -28 -22 -34 -12 -3 5 -3 11 1 15 9 9 33 7 33 -3z"/>
<path d="M563 5643 c-4 -11 1 -22 15 -31 28 -18 29 -35 2 -27 -11 4 -20 2 -20
-4 0 -6 11 -11 25 -11 36 0 44 28 14 51 -20 15 -21 19 -6 19 9 0 17 5 17 10 0
17 -40 11 -47 -7z"/>
<path d="M645 5651 c-3 -5 7 -11 22 -13 l28 -4 -27 -12 c-17 -7 -28 -19 -28
-31 0 -17 6 -20 35 -19 30 1 35 5 35 25 0 13 -5 33 -10 44 -11 20 -45 26 -55
10z m45 -50 c0 -12 -28 -22 -34 -12 -3 5 -3 11 1 15 9 9 33 7 33 -3z"/>
<path d="M730 5599 c0 -33 4 -59 10 -59 6 0 10 7 10 15 0 8 8 15 18 15 24 0
42 19 42 46 0 28 -18 42 -52 42 -27 0 -28 -2 -28 -59z m60 16 c0 -18 -5 -25
-20 -25 -15 0 -20 7 -20 25 0 18 5 25 20 25 15 0 20 -7 20 -25z"/>
<path d="M841 5596 c1 -34 3 -53 6 -43 2 9 13 17 23 17 25 0 42 24 38 57 -3
24 -8 28 -35 29 l-33 1 1 -61z m49 19 c0 -18 -5 -25 -20 -25 -15 0 -20 7 -20
25 0 18 5 25 20 25 15 0 20 -7 20 -25z"/>
<path d="M1186 5651 c-4 -5 4 -11 16 -13 22 -4 22 -5 -5 -16 -40 -17 -33 -46
11 -49 33 -1 33 -1 30 40 -2 34 -7 43 -25 45 -11 2 -24 -1 -27 -7z m32 -53
c-6 -18 -28 -21 -28 -4 0 9 7 16 16 16 9 0 14 -5 12 -12z"/>
<path d="M1470 5613 c0 -24 5 -43 10 -43 6 0 10 16 10 35 0 24 5 35 15 35 10
0 15 -11 15 -35 0 -19 5 -35 11 -35 6 0 9 17 7 43 -3 40 -4 42 -35 42 -32 1
-33 0 -33 -42z"/>
<path d="M1575 5651 c-3 -7 2 -11 14 -11 28 0 27 -13 -1 -25 -35 -15 -29 -40
10 -41 33 -1 33 0 30 40 -2 33 -7 42 -25 44 -11 2 -24 -2 -28 -7z m35 -56 c-7
-8 -16 -12 -21 -9 -13 8 -1 24 18 24 13 0 13 -3 3 -15z"/>
<path d="M1704 5648 c22 -56 29 -92 18 -96 -7 -2 -12 -8 -12 -13 0 -4 7 -6 15
-3 8 3 23 30 35 60 23 62 23 64 11 64 -4 0 -13 -15 -18 -32 l-10 -33 -13 33
c-6 17 -16 32 -22 32 -5 0 -7 -6 -4 -12z"/>
<path d="M1790 5650 c0 -5 9 -10 21 -10 l20 0 -20 -26 c-28 -36 -26 -44 9 -44
17 0 30 5 30 10 0 6 -7 10 -15 10 -19 0 -19 9 0 34 22 29 19 36 -15 36 -16 0
-30 -4 -30 -10z"/>
<path d="M1882 5648 c-15 -15 -16 -50 0 -66 14 -14 48 -16 48 -3 0 5 -7 8 -16
7 -9 0 -19 5 -21 12 -3 7 5 12 22 12 22 0 26 4 23 23 -3 25 -36 35 -56 15z
m43 -18 c3 -5 -3 -10 -14 -10 -12 0 -21 5 -21 10 0 6 6 10 14 10 8 0 18 -4 21
-10z"/>
<path d="M1960 5614 c0 -24 5 -44 10 -44 6 0 10 14 10 30 0 18 6 33 15 36 23
9 18 22 -10 22 -23 0 -25 -4 -25 -44z"/>
<path d="M5650 5627 c-53 -27 -61 -112 -14 -143 28 -19 89 -15 89 6 0 10 -10
15 -28 15 -31 1 -47 18 -47 51 0 27 24 48 49 41 17 -4 39 18 29 29 -12 11 -57
12 -78 1z"/>
<path d="M6888 5629 c-40 -15 -26 -41 18 -33 27 5 34 3 34 -10 0 -9 -7 -16
-15 -16 -25 0 -63 -22 -68 -39 -2 -9 0 -26 4 -38 7 -19 15 -22 68 -21 l61 1 0
62 c0 33 -6 69 -12 78 -17 21 -56 28 -90 16z m62 -93 c0 -7 -7 -19 -15 -26
-13 -10 -18 -11 -28 -1 -9 10 -8 15 7 27 25 18 36 18 36 0z"/>
<path d="M7100 5631 c-8 -6 -27 -7 -42 -4 l-28 6 0 -112 0 -111 25 0 c22 0 25
4 25 33 0 30 2 32 37 32 34 0 40 4 56 37 16 32 17 43 7 73 -15 47 -48 65 -80
46z m28 -43 c28 -28 0 -94 -33 -82 -15 6 -22 74 -8 87 10 11 28 8 41 -5z"/>
<path d="M5890 5550 c0 -79 0 -80 25 -80 25 0 25 1 25 80 0 79 0 80 -25 80
-25 0 -25 -1 -25 -80z"/>
<path d="M5970 5623 c0 -5 11 -40 23 -79 22 -63 26 -69 52 -69 26 0 30 6 52
69 28 85 28 86 3 86 -14 0 -22 -11 -30 -42 -21 -85 -26 -87 -41 -23 -12 49
-19 61 -37 63 -12 2 -22 -1 -22 -5z"/>
<path d="M6150 5550 c0 -79 0 -80 25 -80 25 0 25 1 25 80 0 79 0 80 -25 80
-25 0 -25 -1 -25 -80z"/>
<path d="M6365 5611 c3 -11 17 -47 30 -78 24 -60 20 -93 -10 -93 -8 0 -15 -7
-15 -15 0 -21 43 -19 63 3 15 16 77 172 77 193 0 5 -9 9 -20 9 -14 0 -22 -11
-30 -42 -19 -74 -21 -75 -39 -18 -13 44 -21 56 -40 58 -19 3 -22 0 -16 -17z"/>
<path d="M166 5351 c-4 -5 3 -7 14 -4 23 6 26 13 6 13 -8 0 -17 -4 -20 -9z"/>
<path d="M222 5325 c0 -22 3 -30 5 -17 2 12 8 22 13 22 5 0 11 -10 13 -22 4
-20 4 -19 6 5 1 17 -4 27 -13 27 -8 0 -17 6 -19 13 -3 6 -5 -6 -5 -28z"/>
<path d="M306 5322 c4 -14 0 -22 -13 -25 -17 -4 -17 -5 0 -6 21 -1 34 26 19
41 -8 8 -9 5 -6 -10z"/>
<path d="M334 5325 c-8 -19 4 -35 24 -34 14 1 14 2 -1 6 -13 3 -17 11 -14 24
6 22 -1 26 -9 4z"/>
<path d="M434 5325 c-8 -19 3 -35 24 -34 14 0 13 2 -3 8 l-20 8 20 5 c17 5 18
6 2 7 -10 0 -15 6 -12 11 3 6 4 10 0 10 -3 0 -8 -7 -11 -15z"/>
<path d="M612 5315 c0 -16 2 -22 5 -12 2 9 2 23 0 30 -3 6 -5 -1 -5 -18z"/>
<path d="M664 5325 c-8 -19 3 -35 24 -34 14 0 13 2 -3 8 l-20 8 20 5 c17 5 18
6 2 7 -10 0 -15 6 -12 11 3 6 4 10 0 10 -3 0 -8 -7 -11 -15z"/>
<path d="M404 5312 c3 -5 0 -13 -6 -15 -8 -3 -6 -6 5 -6 19 -1 23 14 5 25 -6
4 -8 3 -4 -4z"/>
<path d="M168 5298 c5 -5 16 -8 23 -6 8 3 3 7 -10 11 -17 4 -21 3 -13 -5z"/>
<path d="M518 5293 c7 -3 16 -2 19 1 4 3 -2 6 -13 5 -11 0 -14 -3 -6 -6z"/>
<path d="M6030 4976 l0 -94 45 2 c53 2 65 14 65 67 0 44 -20 63 -60 57 -28 -4
-30 -3 -30 29 0 18 -4 33 -10 33 -6 0 -10 -38 -10 -94z m80 -5 c11 -21 -2 -71
-19 -71 -26 0 -41 15 -41 39 0 47 40 69 60 32z"/>
<path d="M6710 5037 c0 -32 -2 -33 -32 -29 -37 6 -58 -16 -58 -61 0 -52 15
-66 70 -65 l50 1 0 94 c0 76 -3 93 -15 93 -10 0 -15 -10 -15 -33z m-2 -89 c3
-29 -1 -38 -17 -43 -30 -9 -41 2 -41 39 0 39 7 48 35 44 15 -2 21 -12 23 -40z"/>
<path d="M8730 4976 l0 -94 45 2 c53 2 65 14 65 67 0 44 -20 63 -60 57 -28 -4
-30 -3 -30 29 0 18 -4 33 -10 33 -6 0 -10 -38 -10 -94z m80 -5 c11 -21 -2 -71
-19 -71 -26 0 -41 15 -41 39 0 47 40 69 60 32z"/>
<path d="M9950 4975 c0 -57 4 -95 10 -95 6 0 10 20 10 44 0 46 19 72 45 62 11
-4 15 -20 15 -56 0 -38 4 -50 15 -50 18 0 21 64 5 106 -9 24 -14 26 -45 21
-34 -6 -35 -5 -35 29 0 19 -4 34 -10 34 -6 0 -10 -38 -10 -95z"/>
<path d="M5420 4965 c0 -69 3 -85 15 -85 12 0 15 14 16 63 l0 62 21 -53 c12
-29 26 -51 31 -49 6 2 19 25 28 53 l17 49 1 -62 c1 -49 4 -63 16 -63 12 0 15
16 15 85 0 78 -2 85 -19 85 -15 0 -24 -13 -37 -55 -10 -30 -21 -52 -24 -48 -4
5 -15 29 -24 56 -13 34 -23 47 -37 47 -17 0 -19 -8 -19 -85z"/>
<path d="M5890 5041 c0 -5 -8 -17 -17 -27 -13 -13 -14 -19 -5 -22 7 -2 12 -21
12 -46 0 -48 13 -66 50 -65 l25 0 -22 16 c-28 19 -34 93 -8 93 8 0 15 5 15 10
0 6 -7 10 -15 10 -8 0 -15 9 -15 20 0 11 -4 20 -10 20 -5 0 -10 -4 -10 -9z"/>
<path d="M8120 4965 c0 -69 3 -85 15 -85 12 0 15 14 16 63 l0 62 21 -53 c12
-29 26 -51 31 -49 6 2 19 25 28 53 l17 49 1 -62 c1 -49 4 -63 16 -63 12 0 15
16 15 85 0 78 -2 85 -19 85 -15 0 -24 -13 -37 -55 -10 -30 -21 -52 -24 -48 -4
5 -15 29 -24 56 -13 34 -23 47 -37 47 -17 0 -19 -8 -19 -85z"/>
<path d="M8590 5041 c0 -5 -8 -17 -17 -27 -13 -13 -14 -19 -5 -22 7 -2 12 -21
12 -46 0 -48 13 -66 50 -65 l25 0 -22 16 c-28 19 -34 93 -8 93 8 0 15 5 15 10
0 6 -7 10 -15 10 -8 0 -15 9 -15 20 0 11 -4 20 -10 20 -5 0 -10 -4 -10 -9z"/>
<path d="M9860 5031 c0 -11 -6 -22 -12 -24 -10 -4 -10 -7 -1 -14 6 -5 13 -31
15 -58 3 -46 5 -50 31 -53 31 -4 37 13 7 21 -16 4 -20 14 -20 46 0 34 3 41 20
41 11 0 20 5 20 10 0 6 -9 10 -20 10 -13 0 -20 7 -20 20 0 11 -4 20 -10 20 -5
0 -10 -9 -10 -19z"/>
<path d="M280 4970 c0 -32 4 -40 18 -40 22 0 42 19 41 40 0 9 -4 6 -9 -7 -14
-35 -40 -29 -40 8 0 26 3 31 20 26 11 -3 18 -1 14 4 -3 5 -14 9 -25 9 -16 0
-19 -7 -19 -40z"/>
<path d="M700 5001 c0 -5 -9 -11 -21 -14 -29 -8 -22 -51 9 -55 20 -3 22 1 22
37 0 23 -2 41 -5 41 -3 0 -5 -4 -5 -9z m0 -41 c0 -11 -7 -20 -15 -20 -8 0 -15
9 -15 20 0 11 7 20 15 20 8 0 15 -9 15 -20z"/>
<path d="M790 5001 c0 -5 -8 -12 -17 -14 -17 -4 -17 -5 0 -6 10 -1 17 -9 17
-20 0 -11 -8 -22 -17 -24 -14 -4 -12 -5 5 -6 19 -1 22 4 22 39 0 22 -2 40 -5
40 -3 0 -5 -4 -5 -9z"/>
<path d="M1018 4998 c-2 -7 -1 -26 2 -43 l6 -30 5 32 c6 34 -4 66 -13 41z"/>
<path d="M5633 4998 c-31 -38 -21 -101 17 -113 58 -18 105 36 78 92 -10 22
-21 29 -49 31 -21 2 -40 -2 -46 -10z m68 -32 c14 -29 -4 -69 -29 -64 -24 5
-39 53 -22 72 18 23 39 20 51 -8z"/>
<path d="M5765 4990 c-8 -24 1 -36 36 -54 29 -15 21 -31 -14 -29 -36 2 -30
-21 7 -25 57 -7 77 47 26 73 -36 19 -39 38 -5 33 13 -2 25 2 27 7 2 6 -13 11
-34 13 -30 3 -38 -1 -43 -18z"/>
<path d="M6182 4948 c3 -57 5 -63 26 -66 13 -2 30 2 38 8 10 9 14 9 14 1 0 -6
5 -11 10 -11 6 0 10 28 10 65 0 74 -17 89 -22 19 -2 -32 -9 -51 -21 -58 -24
-15 -37 6 -37 62 0 23 -5 42 -10 42 -7 0 -10 -24 -8 -62z"/>
<path d="M6327 5004 c-16 -16 -5 -46 23 -62 40 -23 40 -47 0 -39 -31 7 -50 -7
-24 -17 25 -10 59 -7 72 6 22 22 14 49 -18 61 -37 14 -41 40 -5 35 13 -2 25 2
27 7 3 12 -64 20 -75 9z"/>
<path d="M6430 5002 c0 -6 9 -31 20 -57 26 -60 25 -79 -2 -98 -23 -16 -23 -16
-2 -16 30 -1 45 20 75 105 19 53 22 74 13 74 -7 0 -18 -17 -25 -37 -18 -58
-21 -59 -38 -13 -15 39 -41 66 -41 42z"/>
<path d="M6787 5003 c-15 -14 -6 -21 24 -19 18 0 34 -5 36 -11 3 -8 -4 -13
-19 -13 -36 0 -60 -22 -56 -51 3 -22 8 -24 56 -25 l52 -2 0 39 c0 65 -15 89
-53 89 -19 0 -37 -3 -40 -7z m63 -77 c0 -15 -37 -32 -47 -22 -3 3 -3 12 0 21
8 19 47 20 47 1z"/>
<path d="M6921 4958 c11 -29 23 -56 25 -60 9 -14 -7 -48 -22 -48 -8 0 -14 -4
-14 -10 0 -15 36 -12 49 4 9 11 61 150 61 163 0 2 -6 3 -14 3 -7 0 -19 -22
-28 -52 l-14 -53 -18 53 c-10 29 -24 52 -32 52 -11 0 -10 -10 7 -52z"/>
<path d="M8333 4998 c-31 -38 -21 -101 17 -113 58 -18 105 36 78 92 -10 22
-21 29 -49 31 -21 2 -40 -2 -46 -10z m68 -32 c14 -29 -4 -69 -29 -64 -24 5
-39 53 -22 72 18 23 39 20 51 -8z"/>
<path d="M8465 4990 c-8 -24 1 -36 36 -54 29 -15 21 -31 -14 -29 -36 2 -30
-21 7 -25 57 -7 77 47 26 73 -36 19 -39 38 -5 33 13 -2 25 2 27 7 2 6 -13 11
-34 13 -30 3 -38 -1 -43 -18z"/>
<path d="M8882 4948 c3 -57 5 -63 26 -66 13 -2 30 2 38 8 10 9 14 9 14 1 0 -6
5 -11 10 -11 6 0 10 28 10 65 0 74 -17 89 -22 19 -2 -32 -9 -51 -21 -58 -24
-15 -37 6 -37 62 0 23 -5 42 -10 42 -7 0 -10 -24 -8 -62z"/>
<path d="M9027 5004 c-16 -16 -5 -46 23 -62 40 -23 40 -47 0 -39 -31 7 -50 -7
-24 -17 25 -10 59 -7 72 6 22 22 14 49 -18 61 -37 14 -41 40 -5 35 13 -2 25 2
27 7 3 12 -64 20 -75 9z"/>
<path d="M9130 5002 c0 -6 9 -31 20 -57 26 -60 25 -79 -2 -98 -23 -16 -23 -16
-2 -16 30 -1 45 20 75 105 19 53 22 74 13 74 -7 0 -18 -17 -25 -37 -18 -58
-21 -59 -38 -13 -15 39 -41 66 -41 42z"/>
<path d="M9330 4943 c0 -35 4 -63 10 -63 6 0 10 19 10 43 0 43 13 67 37 67 9
0 13 -17 13 -55 0 -42 3 -55 15 -55 11 0 15 12 15 49 0 35 4 51 16 55 30 12
34 6 34 -49 0 -43 3 -55 15 -55 13 0 15 11 13 63 l-3 62 -87 1 -88 0 0 -63z"/>
<path d="M9563 4998 c-31 -38 -21 -101 17 -113 58 -18 105 36 78 92 -10 22
-21 29 -49 31 -21 2 -40 -2 -46 -10z m68 -32 c14 -29 -4 -69 -29 -64 -24 5
-39 53 -22 72 18 23 39 20 51 -8z"/>
<path d="M9700 4943 c0 -48 3 -63 14 -63 11 0 16 15 18 53 3 45 6 52 26 55 21
3 22 0 22 -52 0 -43 3 -56 15 -56 11 0 15 12 15 53 0 69 -7 77 -63 75 l-47 -2
0 -63z"/>
<path d="M365 4980 c-3 -6 1 -7 9 -4 18 7 21 14 7 14 -6 0 -13 -4 -16 -10z"/>
<path d="M408 4983 c7 -3 16 -2 19 1 4 3 -2 6 -13 5 -11 0 -14 -3 -6 -6z"/>
<path d="M459 4988 c-1 -2 -2 -21 -4 -43 -1 -22 0 -34 2 -27 3 6 11 12 18 12
7 0 16 -6 18 -12 4 -10 6 -10 6 0 1 8 -7 16 -17 19 -26 6 -25 41 1 46 22 4 22
4 0 6 -13 0 -24 0 -24 -1z"/>
<path d="M560 4983 c17 -8 11 -41 -7 -46 -13 -3 -12 -5 5 -6 20 -1 23 3 20 26
-2 14 -9 28 -16 29 -7 1 -8 0 -2 -3z"/>
<path d="M822 4960 c0 -19 2 -27 5 -17 2 9 2 25 0 35 -3 9 -5 1 -5 -18z"/>
<path d="M864 4976 c-9 -24 4 -48 23 -44 12 2 18 12 18 28 0 29 -32 41 -41 16z
m36 -16 c0 -11 -7 -20 -15 -20 -8 0 -15 9 -15 20 0 11 7 20 15 20 8 0 15 -9
15 -20z"/>
<path d="M937 4984 c-4 -4 -7 -23 -7 -43 0 -20 4 -31 8 -25 4 6 15 13 25 17
12 5 17 15 15 29 -3 23 -27 35 -41 22z m33 -24 c0 -11 -7 -20 -15 -20 -8 0
-15 9 -15 20 0 11 7 20 15 20 8 0 15 -9 15 -20z"/>
<path d="M1114 4975 c-9 -23 3 -45 23 -44 17 1 17 2 1 6 -10 2 -18 13 -18 23
0 10 8 21 18 23 16 4 16 5 -1 6 -10 0 -20 -6 -23 -14z"/>
<path d="M1205 4981 c-3 -7 0 -8 9 -5 10 4 16 -3 19 -23 l5 -28 -2 29 c-1 30
-19 45 -31 27z"/>
<path d="M1267 4983 c-10 -9 -8 -41 2 -47 5 -4 7 3 4 15 -4 12 0 25 8 30 8 5
9 9 3 9 -6 0 -14 -3 -17 -7z"/>
<path d="M1322 4960 c0 -19 2 -27 5 -17 2 9 2 25 0 35 -3 9 -5 1 -5 -18z"/>
<path d="M1367 4983 c-10 -9 -8 -41 2 -47 5 -4 7 3 4 15 -4 12 0 25 8 30 8 5
9 9 3 9 -6 0 -14 -3 -17 -7z"/>
<path d="M602 4955 c0 -16 2 -22 5 -12 2 9 2 23 0 30 -3 6 -5 -1 -5 -18z"/>
<path d="M398 4938 c5 -5 16 -8 23 -6 8 3 3 7 -10 11 -17 4 -21 3 -13 -5z"/>
<path d="M5635 3805 c0 -473 1 -665 2 -427 2 239 2 626 0 860 -1 235 -2 40 -2
-433z"/>
<path d="M5747 4573 c-4 -3 -7 -370 -7 -814 l0 -807 60 -4 c33 -1 87 -1 120 0
l60 4 0 814 0 814 -113 0 c-63 0 -117 -3 -120 -7z"/>
<path d="M380 4451 c0 -36 3 -41 23 -40 15 1 17 3 5 6 -21 5 -22 63 0 63 8 0
12 -6 9 -15 -4 -8 -2 -17 2 -19 5 -3 8 5 7 17 -1 15 -8 23 -23 25 -21 3 -23
-1 -23 -37z"/>
<path d="M778 4478 c-2 -7 -1 -26 2 -43 l6 -30 5 32 c6 34 -4 66 -13 41z"/>
<path d="M843 4450 c0 -25 2 -35 4 -22 2 12 2 32 0 45 -2 12 -4 2 -4 -23z"/>
<path d="M452 4440 c0 -19 2 -27 5 -17 2 9 2 25 0 35 -3 9 -5 1 -5 -18z"/>
<path d="M494 4456 c-9 -24 4 -48 23 -44 12 2 18 12 18 28 0 29 -32 41 -41 16z
m36 -16 c0 -11 -7 -20 -15 -20 -8 0 -15 9 -15 20 0 11 7 20 15 20 8 0 15 -9
15 -20z"/>
<path d="M644 4459 c-4 -7 1 -16 12 -22 17 -10 17 -11 -1 -18 -16 -6 -17 -8
-3 -8 25 -1 34 20 13 31 -14 8 -15 12 -4 19 9 6 10 9 2 9 -6 0 -15 -5 -19 -11z"/>
<path d="M694 4455 c-9 -23 3 -45 23 -44 17 1 17 2 1 6 -10 2 -18 13 -18 23 0
10 8 21 18 23 16 4 16 5 -1 6 -10 0 -20 -6 -23 -14z"/>
<path d="M812 4440 c0 -19 2 -27 5 -17 2 9 2 25 0 35 -3 9 -5 1 -5 -18z"/>
<path d="M874 4455 c-9 -23 3 -45 23 -44 17 1 17 2 1 6 -21 5 -24 39 -5 46 9
4 9 6 -1 6 -7 1 -15 -6 -18 -14z"/>
<path d="M930 4453 c0 -10 4 -14 8 -8 4 6 11 13 16 18 5 4 2 7 -7 7 -10 0 -17
-8 -17 -17z"/>
<path d="M585 4450 c3 -5 8 -10 11 -10 2 0 4 5 4 10 0 6 -5 10 -11 10 -5 0 -7
-4 -4 -10z"/>
<path d="M560 4426 c0 -9 5 -16 10 -16 6 0 10 4 10 9 0 6 -4 13 -10 16 -5 3
-10 -1 -10 -9z"/>
<path d="M607 4433 c-4 -3 -7 -11 -7 -17 0 -6 5 -5 12 2 6 6 9 14 7 17 -3 3
-9 2 -12 -2z"/>
<path d="M954 4432 c3 -6 -2 -13 -11 -15 -16 -4 -16 -5 -1 -6 21 -1 32 15 17
25 -7 4 -9 3 -5 -4z"/>
<path d="M6050 3646 l0 -694 60 -4 c33 -1 87 -1 120 0 l60 4 0 694 0 694 -120
0 -120 0 0 -694z"/>
<path d="M6357 4263 c-4 -3 -7 -300 -7 -660 l0 -653 60 0 c40 0 60 -4 60 -12
0 -9 3 -9 12 0 7 7 36 12 65 12 l53 0 0 660 0 660 -118 0 c-65 0 -122 -3 -125
-7z"/>
<path d="M5501 4113 c7 -12 15 -20 18 -17 3 2 -3 12 -13 22 -17 16 -18 16 -5
-5z"/>
<path d="M671 4034 c0 -11 3 -14 6 -6 3 7 2 16 -1 19 -3 4 -6 -2 -5 -13z"/>
<path d="M706 4035 c-9 -26 -7 -32 5 -12 6 10 9 21 6 23 -2 3 -7 -2 -11 -11z"/>
<path d="M773 4010 c0 -25 2 -35 4 -22 2 12 2 32 0 45 -2 12 -4 2 -4 -23z"/>
<path d="M1000 4041 c0 -5 5 -13 10 -16 6 -3 10 -2 10 4 0 5 -4 13 -10 16 -5
3 -10 2 -10 -4z"/>
<path d="M1215 4039 c-4 -6 -4 -13 -1 -16 3 -4 6 -1 6 5 0 6 8 13 18 15 15 4
15 5 0 6 -9 0 -20 -4 -23 -10z"/>
<path d="M1623 4010 c0 -25 2 -35 4 -22 2 12 2 32 0 45 -2 12 -4 2 -4 -23z"/>
<path d="M1710 4010 c0 -32 4 -40 18 -40 22 0 42 19 41 40 0 9 -4 6 -9 -7 -14
-35 -40 -29 -40 8 0 26 3 31 20 26 11 -3 18 -1 14 4 -3 5 -14 9 -25 9 -16 0
-19 -7 -19 -40z"/>
<path d="M1798 4043 c6 -2 18 -2 25 0 6 3 1 5 -13 5 -14 0 -19 -2 -12 -5z"/>
<path d="M1841 4034 c0 -11 3 -14 6 -6 3 7 2 16 -1 19 -3 4 -6 -2 -5 -13z"/>
<path d="M898 4035 c-6 -7 3 -65 11 -65 7 0 7 58 -1 65 -2 3 -7 3 -10 0z"/>
<path d="M1400 4010 c0 -16 4 -31 9 -34 5 -4 7 3 4 15 -3 12 0 24 6 29 10 5 9
9 -3 13 -12 5 -16 0 -16 -23z"/>
<path d="M1580 4010 c0 -16 4 -31 9 -34 5 -4 7 3 4 15 -3 12 0 24 6 29 10 5 9
9 -3 13 -12 5 -16 0 -16 -23z"/>
<path d="M1881 4024 c0 -11 3 -14 6 -6 3 7 2 16 -1 19 -3 4 -6 -2 -5 -13z"/>
<path d="M741 4014 c0 -11 3 -14 6 -6 3 7 2 16 -1 19 -3 4 -6 -2 -5 -13z"/>
<path d="M796 4023 c7 -4 14 -19 17 -33 4 -22 5 -21 4 4 -1 17 -9 31 -17 33
-10 3 -11 2 -4 -4z"/>
<path d="M850 4022 c21 -10 25 -42 5 -42 -10 0 -13 5 -9 12 4 7 3 8 -5 4 -16
-10 -4 -26 20 -26 29 0 23 54 -6 57 -15 2 -16 1 -5 -5z"/>
<path d="M934 4019 c-4 -7 1 -16 12 -22 17 -10 17 -11 -1 -18 -16 -6 -17 -8
-3 -8 25 -1 34 20 13 31 -14 8 -15 12 -4 19 9 6 10 9 2 9 -6 0 -15 -5 -19 -11z"/>
<path d="M1052 3990 c-1 -25 2 -40 6 -34 4 6 15 13 25 17 21 8 20 49 -1 53 -7
1 -8 0 -2 -3 15 -7 12 -43 -4 -43 -8 0 -17 12 -19 28 -3 17 -4 11 -5 -18z"/>
<path d="M1126 4022 c-2 -4 4 -8 14 -8 10 0 16 4 14 8 -3 4 -9 8 -14 8 -5 0
-11 -4 -14 -8z"/>
<path d="M1280 4021 c0 -6 6 -8 14 -5 10 4 16 -3 19 -20 4 -26 4 -26 3 1 -1
18 -7 29 -18 31 -10 2 -18 -1 -18 -7z"/>
<path d="M1360 4023 c12 -6 13 -43 1 -43 -5 0 -12 6 -14 13 -3 7 -6 5 -6 -5
-1 -12 6 -18 20 -18 16 0 20 5 17 27 -2 14 -9 28 -16 29 -7 1 -8 0 -2 -3z"/>
<path d="M1461 4014 c0 -11 3 -14 6 -6 3 7 2 16 -1 19 -3 4 -6 -2 -5 -13z"/>
<path d="M1491 4025 c0 -5 6 -21 13 -34 12 -21 14 -21 20 -6 3 10 4 20 1 23
-3 3 -5 -1 -5 -9 -1 -8 -7 -3 -15 11 -8 14 -14 21 -14 15z"/>
<path d="M1552 4000 c0 -19 2 -27 5 -17 2 9 2 25 0 35 -3 9 -5 1 -5 -18z"/>
<path d="M1646 4023 c7 -4 14 -19 17 -33 4 -22 5 -21 4 4 -1 17 -9 31 -17 33
-10 3 -11 2 -4 -4z"/>
<path d="M987 3999 c-4 -13 -4 -25 -2 -28 3 -2 5 1 5 7 0 7 9 12 20 12 11 0
20 5 20 11 0 5 -5 7 -11 3 -6 -3 -15 -1 -19 6 -5 8 -9 4 -13 -11z"/>
<path d="M1798 4013 c7 -3 16 -2 19 1 4 3 -2 6 -13 5 -11 0 -14 -3 -6 -6z"/>
<path d="M680 3993 c0 -13 5 -23 10 -23 13 0 13 11 0 30 -8 12 -10 11 -10 -7z"/>
<path d="M720 4005 c0 -5 5 -17 10 -25 5 -8 10 -10 10 -5 0 6 -5 17 -10 25 -5
8 -10 11 -10 5z"/>
<path d="M1857 3992 c1 -8 3 -16 3 -18 0 -3 5 -2 10 1 6 3 10 11 10 16 0 6 -4
8 -9 5 -5 -4 -11 -3 -14 1 -2 5 -2 2 0 -5z"/>
<path d="M1213 3990 c2 -8 14 -16 28 -17 19 -1 20 -1 4 4 -11 3 -24 10 -28 17
-6 7 -7 6 -4 -4z"/>
<path d="M1477 3993 c-4 -3 -7 -11 -7 -17 0 -6 5 -5 12 2 6 6 9 14 7 17 -3 3
-9 2 -12 -2z"/>
<path d="M1135 3980 c-16 -7 -17 -9 -3 -9 9 -1 20 4 23 9 7 11 7 11 -20 0z"/>
<path d="M1798 3973 c6 -2 18 -2 25 0 6 3 1 5 -13 5 -14 0 -19 -2 -12 -5z"/>
<path d="M2092 3961 c9 -16 9 -23 -3 -38 -13 -17 -13 -17 4 -4 15 12 22 12 38
3 18 -11 18 -11 7 7 -9 16 -9 23 3 38 13 17 13 17 -4 4 -15 -12 -22 -12 -38
-3 -18 11 -18 11 -7 -7z"/>
<path d="M5498 3893 c7 -3 16 -2 19 1 4 3 -2 6 -13 5 -11 0 -14 -3 -6 -6z"/>
<path d="M164 3538 c-4 -6 0 -16 9 -23 22 -16 21 -22 0 -28 -16 -4 -16 -5 -1
-6 26 -2 33 20 12 36 -16 12 -17 15 -4 23 9 6 10 10 3 10 -6 0 -15 -5 -19 -12z"/>
<path d="M593 3515 c0 -22 2 -30 4 -17 2 12 2 30 0 40 -3 9 -5 -1 -4 -23z"/>
<path d="M228 3523 c7 -3 16 -2 19 1 4 3 -2 6 -13 5 -11 0 -14 -3 -6 -6z"/>
<path d="M274 3515 c-8 -19 4 -35 24 -34 14 1 14 2 -1 6 -13 3 -17 11 -14 24
6 22 -1 26 -9 4z"/>
<path d="M356 3517 c3 -10 9 -15 12 -12 3 3 0 11 -7 18 -10 9 -11 8 -5 -6z"/>
<path d="M450 3510 c0 -11 -5 -20 -11 -20 -5 0 -7 5 -3 12 4 7 3 8 -5 4 -14
-9 -5 -26 15 -26 8 0 14 10 14 25 0 14 -2 25 -5 25 -3 0 -5 -9 -5 -20z"/>
<path d="M481 3503 c2 -24 2 -25 6 -5 2 12 8 22 13 22 5 0 11 -10 13 -22 4
-20 4 -19 6 5 1 21 -4 27 -19 27 -15 0 -20 -6 -19 -27z"/>
<path d="M712 3505 c0 -16 2 -22 5 -12 2 9 2 23 0 30 -3 6 -5 -1 -5 -18z"/>
<path d="M826 3517 c3 -10 9 -15 12 -12 3 3 0 11 -7 18 -10 9 -11 8 -5 -6z"/>
<path d="M667 3509 c7 -7 15 -10 18 -7 3 3 -2 9 -12 12 -14 6 -15 5 -6 -5z"/>
<path d="M737 3509 c7 -7 15 -10 18 -7 3 3 -2 9 -12 12 -14 6 -15 5 -6 -5z"/>
<path d="M330 3501 c0 -6 4 -13 10 -16 6 -3 7 1 4 9 -7 18 -14 21 -14 7z"/>
<path d="M800 3501 c0 -6 4 -13 10 -16 6 -3 7 1 4 9 -7 18 -14 21 -14 7z"/>
<path d="M625 3490 c3 -5 8 -10 11 -10 2 0 4 5 4 10 0 6 -5 10 -11 10 -5 0 -7
-4 -4 -10z"/>
<path d="M548 3483 c7 -3 16 -2 19 1 4 3 -2 6 -13 5 -11 0 -14 -3 -6 -6z"/>
<path d="M668 3483 c7 -3 16 -2 19 1 4 3 -2 6 -13 5 -11 0 -14 -3 -6 -6z"/>
<path d="M738 3483 c7 -3 16 -2 19 1 4 3 -2 6 -13 5 -11 0 -14 -3 -6 -6z"/>
<path d="M6660 3141 l0 -189 59 -4 c33 -1 89 -1 125 0 l66 4 0 189 0 189 -125
0 -125 0 0 -189z"/>
<path d="M256 3272 c-3 -5 5 -8 17 -8 17 1 22 -5 22 -24 0 -20 -5 -25 -23 -24
-16 0 -20 -2 -12 -10 13 -13 44 4 48 28 6 31 -37 62 -52 38z"/>
<path d="M543 3240 c0 -25 2 -35 4 -22 2 12 2 32 0 45 -2 12 -4 2 -4 -23z"/>
<path d="M573 3240 c0 -25 2 -35 4 -22 2 12 2 32 0 45 -2 12 -4 2 -4 -23z"/>
<path d="M387 3253 c-10 -9 -8 -41 2 -47 5 -4 7 3 4 15 -4 12 0 25 8 30 8 5 9
9 3 9 -6 0 -14 -3 -17 -7z"/>
<path d="M442 3230 c0 -19 2 -27 5 -17 2 9 2 25 0 35 -3 9 -5 1 -5 -18z"/>
<path d="M500 3253 c17 -8 11 -41 -7 -46 -13 -3 -12 -5 5 -6 20 -1 23 3 20 26
-2 14 -9 28 -16 29 -7 1 -8 0 -2 -3z"/>
<path d="M2127 3238 c22 -21 23 -21 43 -3 23 21 19 35 -5 15 -12 -10 -19 -10
-27 -2 -7 7 -17 12 -22 12 -6 0 -1 -10 11 -22z"/>
<path d="M6970 3106 l0 -154 60 -4 c33 -1 87 -1 120 0 l60 4 0 154 0 154 -120
0 -120 0 0 -154z"/>
<path d="M330 3221 c0 -6 4 -13 10 -16 6 -3 7 1 4 9 -7 18 -14 21 -14 7z"/>
<path d="M7280 3065 l0 -115 53 0 c29 0 58 -5 65 -12 9 -9 12 -9 12 0 0 8 19
12 58 12 l57 0 -3 115 -3 115 -120 0 -119 0 0 -115z"/>
<path d="M7580 3025 l0 -75 60 0 c40 0 60 -4 60 -12 0 -9 3 -9 12 0 7 7 36 12
65 12 l53 0 0 75 0 75 -125 0 -125 0 0 -75z"/>
<path d="M5855 2880 c3 -5 14 -10 23 -10 15 0 15 2 2 10 -20 13 -33 13 -25 0z"/>
<path d="M6477 2879 c7 -7 15 -10 18 -7 3 3 -2 9 -12 12 -14 6 -15 5 -6 -5z"/>
<path d="M264 2849 c-3 -6 -1 -16 5 -22 9 -9 11 -8 6 5 -4 11 0 18 12 21 15 4
16 5 1 6 -9 0 -20 -4 -24 -10z"/>
<path d="M580 2851 c0 -5 5 -13 10 -16 6 -3 10 -2 10 4 0 5 -4 13 -10 16 -5 3
-10 2 -10 -4z"/>
<path d="M5850 2839 c0 -5 5 -7 10 -4 6 3 10 8 10 11 0 2 -4 4 -10 4 -5 0 -10
-5 -10 -11z"/>
<path d="M7401 2834 c0 -11 3 -14 6 -6 3 7 2 16 -1 19 -3 4 -6 -2 -5 -13z"/>
<path d="M335 2831 c-3 -7 0 -8 9 -5 10 4 16 -3 19 -23 l5 -28 -2 29 c-1 30
-19 45 -31 27z"/>
<path d="M394 2826 c-9 -24 4 -48 23 -44 12 2 18 12 18 28 0 29 -32 41 -41 16z
m36 -16 c0 -11 -7 -20 -15 -20 -8 0 -15 9 -15 20 0 11 7 20 15 20 8 0 15 -9
15 -20z"/>
<path d="M632 2810 c0 -19 2 -27 5 -17 2 9 2 25 0 35 -3 9 -5 1 -5 -18z"/>
<path d="M656 2833 c7 -4 14 -19 17 -33 4 -22 5 -21 4 4 -1 17 -9 31 -17 33
-10 3 -11 2 -4 -4z"/>
<path d="M710 2832 c21 -10 25 -42 5 -42 -10 0 -13 5 -9 12 4 7 3 8 -5 4 -16
-10 -4 -26 20 -26 29 0 23 54 -6 57 -15 2 -16 1 -5 -5z"/>
<path d="M844 2829 c-4 -7 1 -16 12 -22 17 -10 17 -11 -1 -18 -16 -6 -17 -8
-3 -8 25 -1 34 20 13 31 -14 8 -15 12 -4 19 9 6 10 9 2 9 -6 0 -15 -5 -19 -11z"/>
<path d="M924 2829 c-4 -7 1 -16 12 -22 17 -10 17 -11 -1 -18 -16 -6 -17 -8
-3 -8 25 -1 34 20 13 31 -14 8 -15 12 -4 19 9 6 10 9 2 9 -6 0 -15 -5 -19 -11z"/>
<path d="M485 2820 c3 -5 8 -10 11 -10 2 0 4 5 4 10 0 6 -5 10 -11 10 -5 0 -7
-4 -4 -10z"/>
<path d="M571 2823 c-1 -6 -4 -20 -7 -30 -5 -17 -5 -17 6 0 6 10 9 23 6 30 -3
9 -5 9 -5 0z"/>
<path d="M295 2808 c6 -14 2 -18 -16 -19 -19 -1 -20 -2 -5 -6 25 -7 44 13 27
30 -10 10 -11 9 -6 -5z"/>
<path d="M7096 2807 c3 -10 9 -15 12 -12 3 3 0 11 -7 18 -10 9 -11 8 -5 -6z"/>
<path d="M460 2796 c0 -9 5 -16 10 -16 6 0 10 4 10 9 0 6 -4 13 -10 16 -5 3
-10 -1 -10 -9z"/>
<path d="M507 2803 c-4 -3 -7 -11 -7 -17 0 -6 5 -5 12 2 6 6 9 14 7 17 -3 3
-9 2 -12 -2z"/>
<path d="M7721 2794 c0 -11 3 -14 6 -6 3 7 2 16 -1 19 -3 4 -6 -2 -5 -13z"/>
<path d="M6157 2789 c7 -7 15 -10 18 -7 3 3 -2 9 -12 12 -14 6 -15 5 -6 -5z"/>
<path d="M8998 2793 c7 -3 16 -2 19 1 4 3 -2 6 -13 5 -11 0 -14 -3 -6 -6z"/>
<path d="M796 2773 c-6 -14 -5 -15 5 -6 7 7 10 15 7 18 -3 3 -9 -2 -12 -12z"/>
<path d="M6778 2783 c7 -3 16 -2 19 1 4 3 -2 6 -13 5 -11 0 -14 -3 -6 -6z"/>
<path d="M7096 2767 c3 -10 9 -15 12 -12 3 3 0 11 -7 18 -10 9 -11 8 -5 -6z"/>
<path d="M8990 2776 c0 -2 9 -6 20 -9 11 -3 18 -1 14 4 -5 9 -34 13 -34 5z"/>
<path d="M6155 2760 c-3 -6 1 -7 9 -4 18 7 21 14 7 14 -6 0 -13 -4 -16 -10z"/>
<path d="M7398 2763 c7 -3 16 -2 19 1 4 3 -2 6 -13 5 -11 0 -14 -3 -6 -6z"/>
<path d="M7708 2763 c7 -3 16 -2 19 1 4 3 -2 6 -13 5 -11 0 -14 -3 -6 -6z"/>
<path d="M9458 2763 c7 -3 16 -2 19 1 4 3 -2 6 -13 5 -11 0 -14 -3 -6 -6z"/>
<path d="M10338 2753 c7 -3 16 -2 19 1 4 3 -2 6 -13 5 -11 0 -14 -3 -6 -6z"/>
<path d="M9888 2733 c7 -3 16 -2 19 1 4 3 -2 6 -13 5 -11 0 -14 -3 -6 -6z"/>
<path d="M10330 2736 c0 -2 9 -6 20 -9 11 -3 20 -1 20 4 0 5 -9 9 -20 9 -11 0
-20 -2 -20 -4z"/>
<path d="M6141 2678 c-1 -10 6 -18 14 -18 8 0 15 5 15 11 0 5 -4 8 -9 5 -5 -4
-12 0 -14 6 -3 8 -6 6 -6 -4z"/>
<path d="M8540 2686 c0 -2 7 -6 15 -10 8 -3 15 -1 15 4 0 6 -7 10 -15 10 -8 0
-15 -2 -15 -4z"/>
<path d="M6468 2673 c7 -3 16 -2 19 1 4 3 -2 6 -13 5 -11 0 -14 -3 -6 -6z"/>
<path d="M6775 2670 c-3 -6 1 -7 9 -4 18 7 21 14 7 14 -6 0 -13 -4 -16 -10z"/>
<path d="M6458 2653 c6 -2 18 -2 25 0 6 3 1 5 -13 5 -14 0 -19 -2 -12 -5z"/>
<path d="M5838 2643 c6 -2 18 -2 25 0 6 3 1 5 -13 5 -14 0 -19 -2 -12 -5z"/>
<path d="M9448 2633 c7 -3 16 -2 19 1 4 3 -2 6 -13 5 -11 0 -14 -3 -6 -6z"/>
<path d="M6466 2591 c-3 -5 1 -11 9 -14 9 -4 12 -1 8 9 -6 16 -10 17 -17 5z"/>
<path d="M7014 2125 c-4 -9 -2 -21 4 -27 15 -15 44 -1 40 19 -4 23 -36 29 -44
8z"/>
<path d="M7283 2129 c-15 -15 -5 -39 17 -39 22 0 32 24 17 39 -6 6 -14 11 -17
11 -3 0 -11 -5 -17 -11z"/>
<path d="M6030 2015 l0 -115 24 0 c19 0 25 6 28 27 4 37 20 38 40 3 10 -18 25
-30 38 -30 26 0 25 8 -5 52 -14 20 -25 40 -25 44 0 5 12 21 27 36 l27 28 -26
0 c-18 0 -35 -11 -52 -32 l-26 -33 0 68 c0 65 -1 67 -25 67 l-25 0 0 -115z"/>
<path d="M6210 2034 c0 -107 9 -134 45 -134 25 0 35 23 15 35 -6 3 -10 48 -10
101 0 94 0 94 -25 94 -25 0 -25 0 -25 -96z"/>
<path d="M5411 2098 c0 -7 8 -53 17 -103 17 -89 18 -90 47 -90 29 0 30 2 45
70 l14 70 16 -70 c15 -67 17 -70 46 -73 l30 -3 13 78 c7 43 15 90 18 106 5 22
2 27 -15 27 -22 0 -24 -6 -41 -115 l-7 -50 -19 83 c-16 72 -20 82 -40 82 -19
0 -23 -9 -35 -70 -7 -39 -17 -73 -21 -75 -3 -3 -10 29 -14 70 -6 71 -8 75 -31
75 -13 0 -24 -6 -23 -12z"/>
<path d="M6586 2098 c-3 -7 -18 -55 -34 -105 l-31 -93 25 0 c17 0 25 7 30 26
6 22 11 25 43 22 29 -2 37 -8 39 -25 3 -17 10 -23 28 -23 13 0 24 3 24 6 0 3
-14 50 -31 105 -30 96 -31 99 -60 99 -16 0 -31 -6 -33 -12z m49 -75 c6 -30 4
-33 -18 -33 -23 0 -24 1 -14 40 12 44 21 42 32 -7z"/>
<path d="M6900 2090 c0 -11 -7 -23 -15 -26 -17 -7 -21 -34 -5 -34 6 0 10 -19
10 -43 0 -55 22 -87 61 -87 33 0 40 25 9 33 -16 4 -20 14 -20 51 0 39 3 46 20
46 11 0 20 7 20 15 0 8 -9 15 -20 15 -15 0 -20 7 -20 25 0 18 -5 25 -20 25
-13 0 -20 -7 -20 -20z"/>
<path d="M7380 2085 c0 -16 -6 -25 -15 -25 -8 0 -15 -6 -15 -14 0 -8 7 -16 15
-20 10 -4 15 -20 15 -54 0 -55 12 -72 52 -72 33 0 39 25 8 33 -16 4 -20 14
-20 51 0 39 3 46 20 46 11 0 20 7 20 15 0 8 -9 15 -20 15 -15 0 -20 7 -20 25
0 18 -5 25 -20 25 -15 0 -20 -7 -20 -25z"/>
<path d="M7740 2005 c0 -101 1 -105 21 -105 21 0 21 4 17 70 -3 39 -4 70 -3
70 1 0 13 -27 25 -60 12 -33 28 -60 35 -60 8 0 21 24 30 53 25 76 31 75 27 -3
-4 -66 -3 -70 17 -70 20 0 21 5 21 105 0 104 0 105 -24 105 -20 0 -27 -10 -47
-65 l-23 -66 -24 66 c-21 55 -28 65 -48 65 -24 0 -24 -1 -24 -105z"/>
<path d="M5709 2041 c-27 -28 -31 -37 -26 -69 10 -58 64 -88 121 -66 25 10 7
35 -20 28 -24 -6 -54 9 -54 27 0 5 23 9 51 9 l52 0 -7 32 c-8 39 -22 54 -58
63 -22 6 -33 1 -59 -24z m79 -28 c2 -9 -7 -13 -27 -13 -30 0 -39 9 -24 24 11
10 46 3 51 -11z"/>
<path d="M5900 2057 c-38 -19 -54 -60 -40 -102 6 -19 20 -40 30 -45 23 -12 70
-13 89 -1 21 14 3 32 -25 25 -24 -6 -54 9 -54 27 0 5 23 9 51 9 l52 0 -7 32
c-11 54 -52 77 -96 55z m58 -44 c2 -9 -7 -13 -27 -13 -30 0 -39 9 -24 24 11
10 46 3 51 -11z"/>
<path d="M6774 2056 c-75 -33 -52 -156 29 -156 18 0 37 4 44 8 17 11 -1 36
-21 29 -25 -10 -59 29 -50 56 8 28 24 38 47 33 22 -5 35 23 16 35 -19 12 -28
11 -65 -5z"/>
<path d="M8008 2057 c-35 -15 -24 -36 17 -34 37 2 44 -16 9 -25 -36 -10 -54
-27 -54 -53 0 -33 19 -43 78 -42 l52 1 0 67 c0 59 -3 70 -22 83 -26 19 -43 19
-80 3z m62 -96 c0 -23 -29 -36 -44 -21 -8 8 -6 15 8 26 27 19 36 18 36 -5z"/>
<path d="M8222 2061 c-7 -4 -24 -6 -38 -3 l-24 4 0 -111 c0 -104 1 -111 20
-111 16 0 20 7 20 34 0 34 1 35 33 29 28 -4 37 -1 55 22 30 38 29 89 -3 120
-25 26 -41 30 -63 16z m36 -69 c2 -18 -2 -40 -8 -47 -18 -22 -50 -1 -50 33 0
58 53 70 58 14z"/>
<path d="M6321 1989 c34 -84 36 -105 10 -114 -11 -3 -22 -12 -25 -20 -10 -26
51 -19 68 8 13 19 76 180 76 193 0 3 -10 4 -22 2 -17 -2 -26 -15 -38 -57 l-15
-54 -18 56 c-15 48 -22 57 -42 57 l-24 0 30 -71z"/>
<path d="M7010 1980 c0 -79 0 -80 25 -80 25 0 25 1 25 80 0 79 0 80 -25 80
-25 0 -25 -1 -25 -80z"/>
<path d="M7092 2048 c3 -7 15 -43 27 -80 21 -62 25 -68 50 -68 25 0 29 6 49
68 27 83 27 92 3 92 -14 0 -22 -14 -36 -62 l-18 -63 -16 60 c-13 50 -20 61
-40 63 -17 3 -22 0 -19 -10z"/>
<path d="M7280 1980 c0 -73 2 -80 20 -80 18 0 20 7 20 80 0 73 -2 80 -20 80
-18 0 -20 -7 -20 -80z"/>
<path d="M7482 2048 c3 -7 18 -43 33 -81 22 -54 25 -70 15 -82 -7 -8 -19 -15
-26 -15 -8 0 -14 -7 -14 -15 0 -16 36 -21 56 -7 16 10 33 46 60 125 29 85 29
87 5 87 -15 0 -22 -12 -32 -50 -7 -27 -16 -50 -19 -50 -4 0 -13 21 -21 48 -12
36 -20 48 -38 50 -17 3 -22 0 -19 -10z"/>
<path d="M6460 1496 c0 -111 -1 -115 -22 -119 l-23 -4 23 -2 22 -1 0 -229 0
-230 -22 -4 -23 -4 23 -2 22 -1 0 -224 0 -225 -22 -4 -23 -4 23 -2 22 -1 0
-220 0 -220 585 0 585 0 0 105 0 105 100 0 100 0 0 -105 0 -105 1070 0 1070 0
0 805 0 805 -1755 0 -1755 0 0 -114z"/>
<path d="M6021 1383 c1 -27 4 -38 6 -26 2 12 12 24 21 26 15 4 15 5 0 6 -26 2
-22 29 5 34 19 4 18 4 -5 6 -27 1 -28 -1 -27 -46z"/>
<path d="M6199 1413 c-1 -10 0 -28 1 -40 1 -16 -4 -23 -15 -23 -13 0 -16 6
-13 25 3 14 1 25 -3 25 -5 0 -9 -13 -9 -30 0 -25 4 -30 25 -30 23 0 25 4 25
45 0 43 -9 64 -11 28z"/>
<path d="M6070 1370 c0 -16 4 -30 9 -30 5 0 11 14 13 30 3 20 0 30 -9 30 -8 0
-13 -12 -13 -30z"/>
<path d="M6120 1370 c0 -16 5 -30 10 -30 6 0 10 14 10 30 0 17 -4 30 -10 30
-5 0 -10 -13 -10 -30z"/>
<path d="M6264 1391 c4 -6 1 -11 -7 -11 -16 0 -30 -24 -20 -34 4 -3 17 -6 30
-6 20 0 24 4 21 27 -2 14 -9 29 -17 31 -8 3 -11 0 -7 -7z m11 -31 c-3 -5 -10
-10 -16 -10 -5 0 -9 5 -9 10 0 6 7 10 16 10 8 0 12 -4 9 -10z"/>
<path d="M6315 1383 c16 -40 17 -55 4 -64 -11 -7 -11 -9 -1 -9 13 0 43 58 41
82 0 7 -5 2 -11 -12 l-10 -25 -9 23 c-4 12 -11 22 -15 22 -3 0 -3 -8 1 -17z"/>
<path d="M10455 1390 c-3 -5 -1 -10 6 -10 8 0 10 -13 6 -40 -5 -36 -3 -40 16
-40 16 0 18 3 9 12 -7 7 -12 29 -12 50 0 36 -12 49 -25 28z"/>
<path d="M10535 1390 c-3 -5 0 -7 8 -4 25 9 30 -16 8 -40 -27 -29 -27 -46 2
-46 16 0 18 3 8 9 -11 7 -10 13 4 35 14 21 15 29 5 41 -14 17 -26 19 -35 5z"/>
<path d="M10358 1353 c6 -2 18 -2 25 0 6 3 1 5 -13 5 -14 0 -19 -2 -12 -5z"/>
<path d="M6200 958 c0 -9 -9 -18 -21 -21 -16 -4 -20 -12 -17 -34 2 -22 8 -28
28 -28 22 0 25 5 28 39 2 21 -1 43 -7 49 -8 8 -11 6 -11 -5z m0 -54 c0 -31
-23 -28 -28 4 -2 15 2 22 12 22 11 0 16 -9 16 -26z"/>
<path d="M5911 913 c2 -46 2 -46 8 -13 6 32 8 33 15 13 4 -13 11 -23 16 -23 4
0 11 10 15 23 7 20 8 19 15 -13 7 -34 7 -34 9 13 1 52 -14 62 -30 20 l-11 -28
-10 28 c-15 42 -28 32 -27 -20z"/>
<path d="M6011 926 c-9 -11 -10 -20 -1 -36 17 -31 45 -22 45 15 0 34 -24 45
-44 21z m37 -18 c-5 -32 -28 -35 -28 -4 0 17 5 26 16 26 10 0 14 -7 12 -22z"/>
<path d="M6081 903 l1 -38 9 33 c12 39 31 37 41 -4 6 -27 6 -27 5 6 -2 30 -6
35 -29 38 -26 3 -28 1 -27 -35z"/>
<path d="M6260 931 c25 -7 25 -7 3 -13 -15 -4 -23 -14 -23 -27 0 -16 6 -20 25
-19 22 2 26 7 23 33 -2 24 -8 30 -28 32 l-25 2 25 -8z m18 -33 c-6 -18 -28
-21 -28 -4 0 9 7 16 16 16 9 0 14 -5 12 -12z"/>
<path d="M6316 925 c4 -11 8 -32 8 -47 1 -40 9 -35 29 17 9 25 12 43 7 40 -6
-3 -10 -13 -10 -21 0 -21 -15 -17 -29 9 -8 15 -10 16 -5 2z"/>
<path d="M10458 883 c6 -2 12 -20 12 -38 0 -18 -6 -36 -12 -38 -7 -3 0 -6 17
-6 22 -1 26 2 17 11 -7 7 -12 27 -12 45 0 25 -4 33 -17 32 -11 0 -13 -3 -5 -6z"/>
<path d="M10525 867 c-8 -32 11 -69 33 -65 13 2 17 14 17 43 0 34 -4 40 -22
43 -17 2 -24 -3 -28 -21z m43 -19 c-4 -46 -28 -49 -28 -4 0 26 4 36 16 36 11
0 14 -8 12 -32z"/>
<path d="M10358 853 c6 -2 18 -2 25 0 6 3 1 5 -13 5 -14 0 -19 -2 -12 -5z"/>
<path d="M10190 270 l0 -270 75 0 75 0 0 170 0 170 28 1 27 1 -25 7 c-24 7
-25 10 -28 99 l-3 92 -74 0 -75 0 0 -270z"/>
<path d="M6200 485 c0 -8 -8 -15 -19 -15 -39 0 -31 -64 9 -66 17 -1 20 5 20
47 0 27 -2 49 -5 49 -3 0 -5 -7 -5 -15z m-2 -47 c-2 -13 -7 -23 -13 -23 -5 0
-11 10 -13 23 -2 15 2 22 13 22 11 0 15 -7 13 -22z"/>
<path d="M5837 483 c-13 -12 -7 -23 18 -35 34 -15 34 -42 -1 -35 -16 3 -22 1
-16 -5 16 -16 47 -4 50 19 2 14 -3 23 -17 28 -28 8 -27 23 2 28 20 4 20 4 -4
6 -14 0 -29 -2 -32 -6z"/>
<path d="M5980 461 c0 -41 9 -61 29 -61 12 0 13 2 3 9 -8 4 -13 19 -12 32 3
37 1 49 -10 49 -5 0 -10 -13 -10 -29z"/>
<path d="M5935 461 c16 -8 16 -10 4 -10 -9 -1 -22 -7 -28 -15 -13 -16 3 -33
32 -33 27 0 20 61 -8 64 l-20 3 20 -9z m13 -33 c-6 -18 -28 -21 -28 -4 0 9 7
16 16 16 9 0 14 -5 12 -12z"/>
<path d="M6031 450 c-1 -34 11 -49 37 -47 18 1 22 7 21 37 l-1 35 -7 -30 c-3
-17 -13 -30 -21 -30 -8 0 -18 13 -21 30 -6 27 -7 27 -8 5z"/>
<path d="M6111 433 c1 -27 3 -31 6 -13 2 14 12 31 21 38 14 11 13 12 -6 12
-19 0 -22 -5 -21 -37z"/>
<path d="M6253 464 c16 -5 15 -7 -4 -23 -27 -21 -18 -41 17 -39 21 2 25 7 22
33 -2 24 -8 30 -28 32 -15 1 -18 0 -7 -3z m25 -36 c-6 -18 -28 -21 -28 -4 0 9
7 16 16 16 9 0 14 -5 12 -12z"/>
<path d="M6310 469 c0 -3 5 -21 11 -39 9 -26 9 -34 -2 -42 -12 -8 -12 -9 0 -6
16 5 55 88 42 88 -5 0 -12 -10 -15 -22 l-6 -23 -15 25 c-8 14 -14 22 -15 19z"/>
<path d="M10458 383 c-3 -4 -4 -24 -4 -43 1 -30 4 -35 26 -35 23 0 25 4 25 40
0 33 -4 41 -22 43 -11 2 -23 0 -25 -5z m32 -13 c0 -5 -4 -10 -10 -10 -5 0 -10
5 -10 10 0 6 5 10 10 10 6 0 10 -4 10 -10z m8 -42 c-3 -7 -11 -13 -18 -13 -7
0 -15 6 -17 13 -3 7 4 12 17 12 13 0 20 -5 18 -12z"/>
<path d="M5524 258 c-4 -7 -3 -8 4 -4 8 5 12 -1 12 -14 0 -13 -4 -19 -12 -14
-7 4 -8 3 -4 -4 9 -15 43 -16 51 -2 3 6 -1 7 -9 4 -12 -5 -16 0 -16 20 0 27
-14 35 -26 14z"/>
<path d="M12816 214 c-12 -12 -16 -38 -16 -115 l0 -99 395 0 395 0 0 115 0
115 -379 0 c-332 0 -382 -2 -395 -16z m165 -98 c-8 -10 -9 -16 -1 -21 5 -3 10
-11 10 -17 0 -6 -9 -3 -20 7 -19 17 -19 19 -3 37 19 21 32 16 14 -6z m140 2
c0 -10 2 -10 6 0 8 20 23 14 23 -11 0 -18 -6 -23 -25 -23 -19 0 -25 5 -25 23
0 23 19 33 21 11z m69 -18 c0 -11 -7 -20 -15 -20 -8 0 -15 5 -15 11 0 5 6 7
13 3 8 -5 8 -2 -2 9 -12 15 -11 17 3 17 9 0 16 -8 16 -20z m39 -2 c-1 -21 -2
-21 -7 -3 l-5 20 -8 -20 c-7 -19 -8 -19 -8 3 -1 13 5 22 14 22 9 0 15 -9 14
-22z m41 2 c0 -11 -7 -20 -15 -20 -8 0 -15 5 -15 11 0 5 6 7 13 3 8 -5 8 -2
-2 9 -12 15 -11 17 3 17 9 0 16 -8 16 -20z m80 9 c0 -5 -4 -7 -10 -4 -5 3 -10
1 -10 -4 0 -6 6 -11 13 -11 6 0 -1 -7 -17 -15 -40 -21 -46 -19 -46 15 0 28 3
30 35 30 19 0 35 -5 35 -11z m100 -7 c0 -10 -9 -23 -20 -30 -12 -7 -20 -8 -20
-2 0 5 -9 10 -20 10 -11 0 -20 5 -20 10 0 6 6 10 13 10 9 0 8 3 -2 9 -9 6 1 9
28 9 32 1 41 -3 41 -16z m45 7 c4 -6 -2 -19 -14 -30 l-21 -20 0 31 c0 30 21
42 35 19z"/>
<path d="M5520 182 c0 -4 16 -6 35 -4 19 2 35 6 35 8 0 2 -16 4 -35 4 -19 0
-35 -4 -35 -8z"/>
<path d="M5520 142 c0 -5 14 -7 30 -4 17 2 30 6 30 8 0 2 -13 4 -30 4 -16 0
-30 -4 -30 -8z"/>
<path d="M5520 100 c0 -5 14 -10 32 -10 36 0 35 4 -4 14 -17 4 -28 2 -28 -4z"/>
<path d="M5524 58 c-4 -7 -3 -8 4 -4 8 5 12 0 12 -13 0 -29 19 -36 38 -15 14
15 14 16 1 6 -17 -13 -29 -7 -29 16 0 8 6 12 15 8 8 -3 15 -1 15 4 0 14 -47
12 -56 -2z"/>
<path d="M6206 15 c-3 -8 -1 -15 4 -15 6 0 10 7 10 15 0 19 -6 19 -14 0z"/>
<path d="M5935 10 c-3 -6 1 -7 9 -4 18 7 21 14 7 14 -6 0 -13 -4 -16 -10z"/>
</g>
</svg>
