<?xml version="1.0" encoding="UTF-8"?>
<svg version="1.1" xmlns="http://www.w3.org/2000/svg" width="200" height="200">
<path d="M0 0 C66 0 132 0 200 0 C200 66 200 132 200 200 C134 200 68 200 0 200 C0 134 0 68 0 0 Z " fill="#070631" transform="translate(0,0)"/>
<path d="M0 0 C2.90207657 2.03463202 5.41552599 4.58142298 8 7 C8.49091125 7.45824158 8.98182251 7.91648315 9.48760986 8.38861084 C12.93555521 11.61805321 16.33689345 14.89149757 19.71191406 18.19702148 C20.91045839 19.36365481 22.11697723 20.52214762 23.33105469 21.67260742 C25.10488976 23.35517721 26.85106701 25.06259966 28.59375 26.77734375 C29.40918274 27.53554665 29.40918274 27.53554665 30.24108887 28.30906677 C33.08489433 31.16795267 33.97771022 32.80415184 34.43759155 36.84487915 C34.28963751 41.4287167 32.53463663 43.4420884 29.25830078 46.66577148 C28.7543277 47.17251907 28.25035461 47.67926666 27.73110962 48.20137024 C26.07092245 49.8610848 24.38417689 51.49061217 22.6953125 53.12109375 C21.53258099 54.27143162 20.37154209 55.42348262 19.21212769 56.5771637 C16.16273233 59.60174898 13.0896504 62.60112753 10.01135254 65.59625244 C7.49741992 68.05007387 5.00038897 70.52070458 2.50413704 72.99249172 C-2.64647692 78.092512 -7.80807792 83.18150767 -12.99951172 88.23999023 C-14.37851151 89.58612648 -14.37851151 89.58612648 -15.78536987 90.9594574 C-18.52487656 93.48361709 -19.50480285 93.93405365 -23.2265625 94.4296875 C-28.29780079 93.8522173 -30.06076131 91.79163876 -33.375 88.125 C-33.90738281 87.56941406 -34.43976563 87.01382813 -34.98828125 86.44140625 C-39.92134981 81.23218627 -39.92134981 81.23218627 -40.1875 77.0625 C-40 74 -40 74 -38 71 C-37.34 71 -36.68 71 -36 71 C-36 70.34 -36 69.68 -36 69 C-32.7328221 65.43580592 -29.14802294 62.42168121 -25.35546875 59.4296875 C-23.65599021 57.96550427 -23.65599021 57.96550427 -24 55 C-24.54269531 54.7834375 -25.08539063 54.566875 -25.64453125 54.34375 C-28.80702306 52.53960874 -31.16689544 50.084037 -33.6875 47.5 C-34.18572266 47.00113281 -34.68394531 46.50226563 -35.19726562 45.98828125 C-39.85892247 41.2696978 -39.85892247 41.2696978 -40.3125 37.1875 C-39.92909089 33.27672704 -38.7456925 31.7456925 -36 29 C-35.34 29 -34.68 29 -34 29 C-33.75121094 28.4121875 -33.50242187 27.824375 -33.24609375 27.21875 C-31.82596195 24.69011407 -30.29869782 23.33226637 -28.0625 21.5 C-25.84958877 19.68003563 -24.07108393 18.09682416 -22.37109375 15.78125 C-21.91863281 15.1934375 -21.46617188 14.605625 -21 14 C-20.34 14 -19.68 14 -19 14 C-18.7628125 13.43667969 -18.525625 12.87335938 -18.28125 12.29296875 C-16.71350057 9.48727084 -14.79085403 7.56244592 -12.5 5.3125 C-11.7059375 4.52488281 -10.911875 3.73726563 -10.09375 2.92578125 C-6.72260136 -0.17492076 -4.55696443 -0.67510584 0 0 Z " fill="#97A4D6" transform="translate(143,63)"/>
<path d="M0 0 C3.14309469 1.81736055 5.47880467 4.40255885 8 7 C8.61875 7.58652344 9.2375 8.17304687 9.875 8.77734375 C10.431875 9.34582031 10.98875 9.91429687 11.5625 10.5 C12.30693359 11.25796875 12.30693359 11.25796875 13.06640625 12.03125 C14.67431836 15.42199352 14.05824509 17.44178915 13 21 C10.77641082 23.9074042 8.18628276 26.335698 5.5 28.8125 C4.11283441 30.129671 2.72733226 31.44859675 1.34375 32.76953125 C0.72693359 33.34292236 0.11011719 33.91631348 -0.52539062 34.50708008 C-2.10548663 35.9523331 -2.10548663 35.9523331 -3 38 C-2.01 38.33 -1.02 38.66 0 39 C1.24627356 40.4430536 2.48770755 41.89147674 3.67578125 43.3828125 C6.25718967 46.53532898 9.19367275 49.32442852 12.3125 51.9375 C14 54 14 54 14.55224609 56.64331055 C13.70564822 61.78914351 10.51999653 64.24377546 6.8515625 67.76953125 C6.12383636 68.49113937 5.39611023 69.2127475 4.64633179 69.95622253 C2.31957639 72.25604436 -0.0274659 74.5339121 -2.375 76.8125 C-3.94922936 78.36520669 -5.52216244 79.91922881 -7.09375 81.47460938 C-9.96955532 84.30826771 -12.84684923 87.14018942 -15.74365234 89.95239258 C-16.32545258 90.51831619 -16.90725281 91.08423981 -17.50668335 91.66731262 C-19.54768367 93.48877183 -20.9333244 93.98735686 -23.6394043 94.50048828 C-28.77546684 93.73558249 -31.22777371 90.61264846 -34.76953125 86.9921875 C-35.49113937 86.27394806 -36.2127475 85.55570862 -36.95622253 84.81570435 C-38.47706455 83.29456359 -39.99045209 81.76593831 -41.49682617 80.23046875 C-43.80255605 77.88511483 -46.13612261 75.57045555 -48.47460938 73.2578125 C-49.94967593 71.77518572 -51.42304215 70.29086493 -52.89453125 68.8046875 C-53.94130791 67.76838699 -53.94130791 67.76838699 -55.00923157 66.71115112 C-57.72002152 63.92008924 -59.74126501 61.55953328 -61.3815918 58.01220703 C-60.75063569 53.03156953 -57.4534691 50.45160013 -54 47 C-53.20601807 46.16968262 -52.41203613 45.33936523 -51.59399414 44.48388672 C-45.72705688 38.35778081 -39.7458464 32.3414285 -33.77587891 26.31591797 C-31.58246952 24.10008594 -29.39927792 21.87486293 -27.22412109 19.64111328 C-24.57957174 16.9255278 -21.91826476 14.22748797 -19.24412537 11.54104614 C-18.233414 10.51995134 -17.22871417 9.4928682 -16.23036194 8.45968628 C-14.8362022 7.01935707 -13.41756487 5.60284386 -11.99804688 4.1875 C-11.19975464 3.37667969 -10.4014624 2.56585938 -9.57897949 1.73046875 C-6.2004123 -0.53651514 -3.98971099 -0.41022972 0 0 Z " fill="#757C9A" transform="translate(83,43)"/>
<path d="M0 0 C0.33 0 0.66 0 1 0 C1.3403125 1.5778125 1.3403125 1.5778125 1.6875 3.1875 C2.83481196 7.21117152 4.89348204 9.18246045 8 12 C8.86932488 13.02905024 9.72350398 14.07107599 10.5625 15.125 C12.60627348 17.53560461 14.39287695 19.26191797 17 21 C16.46133395 24.9681732 14.60656261 26.67923727 11.75 29.375 C10.94175781 30.16261719 10.13351563 30.95023438 9.30078125 31.76171875 C8.54152344 32.50035156 7.78226563 33.23898438 7 34 C4.26530858 36.73469142 2.1823565 38.82864701 1.56640625 42.78515625 C2.13747348 47.01928539 4.14137127 49.27220332 7 52.25 C7.49604736 52.78141602 7.99209473 53.31283203 8.50317383 53.86035156 C12.49701325 57.93199722 15.37454694 59.5754375 21 60 C17.149574 64.70607622 13.03851366 69.07110613 8.75 73.375 C8.21858398 73.91092773 7.68716797 74.44685547 7.13964844 74.99902344 C2.29219522 79.82791589 2.29219522 79.82791589 -2.2265625 80.4296875 C-7.29780079 79.8522173 -9.06076131 77.79163876 -12.375 74.125 C-12.90738281 73.56941406 -13.43976563 73.01382813 -13.98828125 72.44140625 C-18.92134981 67.23218627 -18.92134981 67.23218627 -19.1875 63.0625 C-19 60 -19 60 -17 57 C-16.34 57 -15.68 57 -15 57 C-15 56.34 -15 55.68 -15 55 C-11.7328221 51.43580592 -8.14802294 48.42168121 -4.35546875 45.4296875 C-2.65599021 43.96550427 -2.65599021 43.96550427 -3 41 C-3.54269531 40.7834375 -4.08539063 40.566875 -4.64453125 40.34375 C-7.80702306 38.53960874 -10.16689544 36.084037 -12.6875 33.5 C-13.18572266 33.00113281 -13.68394531 32.50226563 -14.19726562 31.98828125 C-18.85892247 27.2696978 -18.85892247 27.2696978 -19.3125 23.1875 C-18.92909089 19.27672704 -17.7456925 17.7456925 -15 15 C-14.34 15 -13.68 15 -13 15 C-12.62681641 14.11828125 -12.62681641 14.11828125 -12.24609375 13.21875 C-10.82596195 10.69011407 -9.29869782 9.33226637 -7.0625 7.5 C-4.25784799 5.19337031 -2.14710638 2.92262838 0 0 Z " fill="#747A99" transform="translate(122,77)"/>
<path d="M0 0 C5.1638743 1.07892543 7.65313197 3.9862345 11.234375 7.67578125 C12.1625 8.55556641 12.1625 8.55556641 13.109375 9.453125 C13.66625 10.02160156 14.223125 10.59007812 14.796875 11.17578125 C15.29316406 11.68109375 15.78945312 12.18640625 16.30078125 12.70703125 C17.90869336 16.09777477 17.29262009 18.1175704 16.234375 21.67578125 C14.01078582 24.58318545 11.42065776 27.01147925 8.734375 29.48828125 C7.34720941 30.80545225 5.96170726 32.124378 4.578125 33.4453125 C3.96130859 34.01870361 3.34449219 34.59209473 2.70898438 35.18286133 C1.12888837 36.62811435 1.12888837 36.62811435 0.234375 38.67578125 C1.719375 39.17078125 1.719375 39.17078125 3.234375 39.67578125 C4.48064856 41.11883485 5.72208255 42.56725799 6.91015625 44.05859375 C9.49156467 47.21111023 12.42804775 50.00020977 15.546875 52.61328125 C17.234375 54.67578125 17.234375 54.67578125 17.58154297 57.52197266 C17.15331195 61.41218944 16.13902191 62.49726759 13.3671875 65.19921875 C12.56410156 65.99199219 11.76101562 66.78476563 10.93359375 67.6015625 C10.08410156 68.40980469 9.23460938 69.21804687 8.359375 70.05078125 C7.51761719 70.88222656 6.67585938 71.71367188 5.80859375 72.5703125 C-0.4572814 78.67578125 -0.4572814 78.67578125 -2.765625 78.67578125 C-3.84087694 76.02349313 -4.86018651 73.39209671 -5.765625 70.67578125 C-6.755625 70.34578125 -7.745625 70.01578125 -8.765625 69.67578125 C-10.45294777 67.69317699 -12.11928557 65.69254705 -13.765625 63.67578125 C-14.755625 63.01578125 -15.745625 62.35578125 -16.765625 61.67578125 C-16.765625 61.01578125 -16.765625 60.35578125 -16.765625 59.67578125 C-17.755625 59.67578125 -18.745625 59.67578125 -19.765625 59.67578125 C-19.765625 55.67578125 -19.765625 55.67578125 -17.953125 53.48828125 C-15.765625 51.67578125 -15.765625 51.67578125 -12.765625 50.67578125 C-11.75374605 49.01629977 -10.7529704 47.34997563 -9.765625 45.67578125 C-9.105625 45.67578125 -8.445625 45.67578125 -7.765625 45.67578125 C-7.765625 45.01578125 -7.765625 44.35578125 -7.765625 43.67578125 C-7.25 43.30453125 -6.734375 42.93328125 -6.203125 42.55078125 C-4.37267963 40.55701585 -4.37267963 40.55701585 -4.765625 36.80078125 C-5.49005006 32.44627015 -7.41939065 30.55509918 -10.765625 27.67578125 C-11.384375 26.78890625 -12.003125 25.90203125 -12.640625 24.98828125 C-15.389211 21.99717296 -17.85513869 21.50299951 -21.765625 20.67578125 C-19.5392362 15.68944641 -15.85695391 12.28298083 -12.078125 8.42578125 C-11.38267578 7.68070313 -10.68722656 6.935625 -9.97070312 6.16796875 C-4.75897326 0.85404811 -4.75897326 0.85404811 0 0 Z " fill="#98A4D6" transform="translate(79.765625,42.32421875)"/>
<path d="M0 0 C1.32 0 2.64 0 4 0 C4 1.32 4 2.64 4 4 C5.32 3.34 6.64 2.68 8 2 C7.67 2.99 7.34 3.98 7 5 C7.66 5.66 8.32 6.32 9 7 C7.35 8.98 5.7 10.96 4 13 C2.91576304 10.83152608 2.77573904 9.33535124 2.5625 6.9375 C2.376875 5.638125 2.19125 4.33875 2 3 C1.34 2.67 0.68 2.34 0 2 C0 1.34 0 0.68 0 0 Z " fill="#909BC6" transform="translate(72,72)"/>
<path d="M0 0 C4.875 2.625 4.875 2.625 6 6 C4.68 6.99 3.36 7.98 2 9 C0.68 7.68 -0.64 6.36 -2 5 C-1.34 3.35 -0.68 1.7 0 0 Z " fill="#111035" transform="translate(114,115)"/>
<path d="M0 0 C0 3 0 3 -1.49609375 4.71875 C-2.13675781 5.3065625 -2.77742188 5.894375 -3.4375 6.5 C-5.92139791 8.78819687 -6.90880131 9.72640392 -8 13 C-9.32 12.67 -10.64 12.34 -12 12 C-8.04 8.04 -4.08 4.08 0 0 Z " fill="#212552" transform="translate(95,104)"/>
<path d="M0 0 C2.56687367 3.8503105 1.83288724 5.58569763 1 10 C-0.65 8.68 -2.3 7.36 -4 6 C-2.84826645 3.53199953 -1.95216435 1.95216435 0 0 Z " fill="#121647" transform="translate(84,75)"/>
<path d="M0 0 C0 2.64 0 5.28 0 8 C-0.33 7.34 -0.66 6.68 -1 6 C-1.99 6 -2.98 6 -4 6 C-4 4.68 -4 3.36 -4 2 C-1 0 -1 0 0 0 Z " fill="#979DC6" transform="translate(64,96)"/>
<path d="M0 0 C1.670625 0.061875 1.670625 0.061875 3.375 0.125 C3.045 1.115 2.715 2.105 2.375 3.125 C-0.5 3.75 -0.5 3.75 -3.625 4.125 C-4.285 3.465 -4.945 2.805 -5.625 2.125 C-3.625 0.125 -3.625 0.125 0 0 Z " fill="#8D96CF" transform="translate(79.625,42.875)"/>
<path d="M0 0 C0.33 0 0.66 0 1 0 C1.28875 1.0725 1.5775 2.145 1.875 3.25 C2.72820109 6.09400364 3.5636503 8.43508983 5 11 C3.68 11 2.36 11 1 11 C-0.17571451 7.32589215 -0.07366746 3.83070817 0 0 Z " fill="#7C86AC" transform="translate(122,117)"/>
<path d="M0 0 C1.32 0.66 2.64 1.32 4 2 C2.35 3.32 0.7 4.64 -1 6 C-1.33 4.68 -1.66 3.36 -2 2 C-1.34 2 -0.68 2 0 2 C0 1.34 0 0.68 0 0 Z " fill="#0E0F47" transform="translate(66,48)"/>
<path d="M0 0 C0.66 0 1.32 0 2 0 C2 0.66 2 1.32 2 2 C2.66 2 3.32 2 4 2 C4 1.34 4 0.68 4 0 C5.32 0.66 6.64 1.32 8 2 C5.04335481 3.4783226 2.25770263 3.06032783 -1 3 C-0.67 2.01 -0.34 1.02 0 0 Z " fill="#6F738E" transform="translate(117,154)"/>
</svg>
