<svg width="208" height="96" viewBox="0 0 208 96" fill="none" xmlns="http://www.w3.org/2000/svg">
<path fill="#FFFFFE" opacity="1.000000" stroke="none" 
	d="
M226.000000,81.000000 
	C226.000000,129.666672 226.000000,177.833328 226.000000,226.000000 
	C151.000000,226.000000 76.000000,226.000000 1.000000,226.000000 
	C1.000000,151.000000 1.000000,76.000000 1.000000,1.000000 
	C76.000000,1.000000 151.000000,1.000000 226.000000,1.000000 
	C226.000000,27.500000 226.000000,54.000000 226.000000,81.000000 
M43.948757,61.725849 
	C44.241779,61.928230 44.534801,62.130615 45.027512,62.706257 
	C45.214012,62.933594 45.450638,63.079811 45.980083,63.723843 
	C46.667583,64.125343 47.355083,64.526840 48.037781,65.003441 
	C48.037781,65.003441 48.090996,64.950233 48.341476,65.319611 
	C48.542362,65.549736 48.787979,65.712257 49.052593,65.914345 
	C49.052593,65.914345 49.161610,65.930489 49.244717,66.352951 
	C49.244717,66.352951 49.584244,66.615364 49.584244,66.615364 
	C49.584244,66.615364 50.010555,66.566368 50.511559,67.043854 
	C50.886868,67.310143 51.262173,67.576431 51.766285,68.391495 
	C52.444633,68.689499 53.122986,68.987503 53.935528,69.142120 
	C53.935528,69.142120 53.762802,69.235573 53.970699,69.726181 
	C54.277607,69.888573 54.584515,70.050957 55.157597,70.606392 
	C55.157597,70.606392 55.560040,70.858131 55.740074,71.440529 
	C56.808380,72.317978 57.876690,73.195427 59.000137,74.008110 
	C59.000137,74.008110 58.926567,74.050667 59.101540,74.547180 
	C59.403461,74.696083 59.705383,74.844994 60.239159,75.523041 
	C60.819363,76.015785 61.399563,76.508537 62.051182,77.647087 
	C62.691914,78.110786 63.332649,78.574486 64.196167,79.625122 
	C64.417603,80.408821 64.639038,81.192520 64.246384,82.093910 
	C62.871044,82.874008 61.495705,83.654099 59.426960,84.634979 
	C58.950634,84.692459 58.474308,84.749947 57.746521,84.533279 
	C57.537037,84.743370 57.327553,84.953461 57.052750,85.040054 
	C57.052750,85.040054 57.162220,85.126854 56.452236,85.147148 
	C54.253025,86.677643 54.257278,87.983749 57.233677,89.633812 
	C60.751804,92.707382 64.087723,92.244812 67.728859,88.928001 
	C67.954567,88.689835 68.109383,88.412140 68.843643,87.949287 
	C69.533447,86.964409 70.223259,85.979523 71.272575,84.408730 
	C72.351089,85.360382 73.602921,86.175560 74.478210,87.287231 
	C78.337173,92.188332 82.087616,97.174873 86.094841,102.718842 
	C86.826439,103.458755 87.558044,104.198662 88.469040,105.568489 
	C91.853897,108.781670 95.238754,111.994858 98.750038,115.923424 
	C100.826775,118.939362 102.903503,121.955299 104.847000,125.729385 
	C104.874512,126.495087 104.902016,127.260788 104.752541,128.392776 
	C104.752541,128.392776 104.773941,128.799026 104.283310,129.367035 
	C102.276093,141.208237 97.493446,151.322372 86.035141,158.037766 
	C85.740623,159.646530 85.446106,161.255295 84.566216,163.019745 
	C84.378067,163.093018 84.189926,163.166290 83.493904,163.093475 
	C83.326576,163.148514 83.159241,163.203568 82.210281,163.098419 
	C81.157379,163.173950 80.104477,163.249496 78.389565,163.255569 
	C78.007164,164.185638 77.624763,165.115723 77.096893,166.947311 
	C77.171310,170.299850 77.245720,173.652374 77.141273,177.922394 
	C77.202171,182.948868 77.263069,187.975357 77.141701,193.853867 
	C77.066452,195.487686 76.991203,197.121506 76.904236,199.009720 
	C74.955521,199.136871 73.173843,199.253143 71.112656,200.166260 
	C71.077011,200.445496 71.041374,200.724716 70.889801,201.852234 
	C70.902275,203.564316 70.914749,205.276382 69.999969,206.978180 
	C66.502785,206.985794 63.003567,206.922256 59.509029,207.022202 
	C56.383091,207.111618 53.262310,207.381302 50.139252,207.571442 
	C50.164127,208.373428 50.188999,209.175415 50.213875,209.977402 
	C63.146069,209.977402 76.078262,209.977402 89.945496,209.999619 
	C104.008255,210.002365 118.071426,210.056702 132.133270,209.944214 
	C133.940247,209.929764 135.740326,209.049057 138.359955,208.416428 
	C141.683640,208.543701 145.007309,208.670959 149.135315,209.586639 
	C158.788040,209.586639 168.440781,209.586639 178.093506,209.586639 
	C178.108475,208.827072 178.123444,208.067505 178.138428,207.307953 
	C170.523193,207.124374 162.907974,206.940796 155.482010,205.969803 
	C156.446381,201.444183 155.162277,198.706024 149.988419,198.942520 
	C149.667023,198.957199 149.316376,198.331528 149.113007,197.504868 
	C149.067596,197.338791 149.022186,197.172714 149.164032,196.084747 
	C149.096817,187.386963 149.029602,178.689194 149.093491,169.500900 
	C149.045471,169.338593 148.997467,169.176300 149.150482,168.195587 
	C149.294678,165.279175 149.520203,162.293640 144.253052,163.109085 
	C143.463364,163.048264 142.673676,162.987442 141.838058,162.149216 
	C141.166840,160.493866 140.920532,158.390182 139.740463,157.271713 
	C136.824112,154.507614 133.479935,152.194916 130.112656,149.824356 
	C130.112656,149.824356 130.334015,149.758682 130.202118,149.195679 
	C129.802933,148.791824 129.403763,148.387955 128.864273,147.280716 
	C127.405067,144.132126 125.589157,141.095032 124.562660,137.811172 
	C122.569389,131.434601 119.954666,124.862335 126.627251,119.269577 
	C127.781364,118.302238 128.006531,116.293404 128.869904,114.894722 
	C129.852264,113.303322 130.762756,111.392113 132.233536,110.421928 
	C142.524139,103.633827 149.758347,94.479782 154.764465,83.409775 
	C156.839874,85.963097 158.915283,88.516418 161.351532,91.685028 
	C163.010971,91.900398 165.041977,92.812187 166.244232,92.170715 
	C168.128662,91.165260 170.351730,89.330185 170.810822,87.450653 
	C171.554794,84.404800 168.750153,84.289429 166.353699,83.718979 
	C164.982330,83.392540 164.050385,81.219994 163.140198,79.249840 
	C166.741638,75.783409 170.343079,72.316986 174.592712,68.679337 
	C179.322403,64.431442 184.052094,60.183552 189.199158,55.400730 
	C194.905365,49.565075 197.810333,42.712997 197.086243,34.422268 
	C196.439667,27.018818 191.351334,20.462193 184.165024,18.824839 
	C173.156311,15.208288 168.633163,17.652653 163.217041,25.163744 
	C161.159500,25.214365 159.101959,25.264988 156.117615,25.135578 
	C144.665070,25.118528 133.212433,25.062487 121.760017,25.093229 
	C102.845802,25.144003 83.931740,25.250799 64.388176,25.367868 
	C62.256218,23.623964 60.124264,21.880060 57.445850,19.817650 
	C55.295525,18.929010 53.145199,18.040369 50.317295,16.985859 
	C48.641800,16.771950 46.439129,15.772724 45.383110,16.481625 
	C41.073402,19.374714 37.114346,22.790152 32.561779,26.524315 
	C28.688063,34.100140 28.483696,41.587646 33.161552,49.626747 
	C34.066906,50.820007 34.972260,52.013268 36.037052,53.609020 
	C36.197445,53.863262 36.418781,54.042053 36.839676,54.792507 
	C37.557526,55.531170 38.275379,56.269836 39.000000,57.000000 
	C39.000000,57.000000 38.991215,57.007210 39.166046,57.606575 
	C40.131943,58.344696 41.097839,59.082821 42.265457,60.094048 
	C42.265457,60.094048 42.577900,60.226940 42.817436,60.740688 
	C43.145260,60.908340 43.473087,61.075993 43.939995,61.051903 
	C43.939995,61.051903 43.766617,61.213295 43.948757,61.725849 
M57.420551,82.481667 
	C57.420551,82.481667 57.525032,82.420822 57.420551,82.481667 
z"/>
<path fill="#E7A616" opacity="1.000000" stroke="none" 
	d="
M65.017609,25.333984 
	C83.931740,25.250799 102.845802,25.144003 121.760017,25.093229 
	C133.212433,25.062487 144.665070,25.118528 156.580719,25.672848 
	C157.682190,44.560879 156.352219,62.655087 148.890060,79.724373 
	C142.800385,93.654175 134.009506,104.970123 118.455338,109.378120 
	C109.403625,111.943344 100.922569,111.246017 93.087921,105.760040 
	C93.494736,104.315025 93.755997,103.193916 94.026627,101.741867 
	C94.036835,101.190216 94.037674,100.969513 94.250473,100.548950 
	C95.187408,100.057701 95.912392,99.766296 95.944221,99.753502 
	C94.859123,97.725311 94.048309,95.684639 92.771072,93.996933 
	C91.833267,92.757729 90.284279,91.981056 88.851936,90.666428 
	C81.988266,73.536880 80.619896,55.843193 80.210846,37.793076 
	C80.066277,35.703087 79.631622,33.857224 78.914185,31.722679 
	C76.752792,31.194822 74.874191,30.955645 72.945374,30.456902 
	C72.265068,30.366896 71.634972,30.536459 70.673035,30.774677 
	C69.892456,30.892828 69.443710,30.942322 68.801826,30.746414 
	C67.372833,30.673576 66.136986,30.846140 64.887375,30.715801 
	C64.876801,30.008692 64.879974,29.604481 64.922630,28.825285 
	C64.945930,27.949987 64.929749,27.449673 64.930847,26.680130 
	C64.971298,26.051928 64.994453,25.692955 65.017609,25.333984 
z"/>
<path fill="#3A3E47" opacity="1.000000" stroke="none" 
	d="
M141.883987,162.926605 
	C142.673676,162.987442 143.463364,163.048264 144.631378,163.530807 
	C145.004349,168.856491 145.025314,173.760651 144.985703,178.664337 
	C144.950912,182.971649 146.205917,187.873795 139.891449,189.139221 
	C140.933136,190.847427 141.713562,192.084549 142.450500,193.347046 
	C143.263992,194.740738 144.037567,196.157730 144.828537,197.564560 
	C143.216827,198.041214 141.607452,198.922867 139.993027,198.932266 
	C122.698334,199.032944 105.402817,199.010193 88.107574,198.986145 
	C83.804077,198.980164 78.403595,200.514648 78.999001,192.533142 
	C78.999786,187.044189 78.999130,182.022095 79.000015,176.581177 
	C79.009407,174.763565 79.017250,173.364792 79.408585,171.984436 
	C82.866005,170.669403 85.939941,169.335938 89.416733,168.002304 
	C91.440956,168.002121 93.062317,168.002121 94.389275,168.002121 
	C94.851486,166.598175 95.254219,165.374908 95.812622,163.678787 
	C93.540489,164.114349 91.272575,164.549118 88.559227,164.990585 
	C85.093056,164.439880 82.072311,163.882446 79.051575,163.325027 
	C80.104477,163.249496 81.157379,163.173950 82.694672,163.329834 
	C83.453293,163.454010 83.727539,163.346786 84.001785,163.239563 
	C84.189926,163.166290 84.378067,163.093018 85.064285,163.008972 
	C85.562355,162.998215 85.986740,162.904419 86.452286,162.976334 
	C103.603706,163.008774 120.289589,162.969299 137.385223,162.978210 
	C139.157990,162.993271 140.520981,162.959946 141.883987,162.926605 
M88.844551,190.190002 
	C88.844551,190.190002 88.945107,190.213837 89.545082,190.794434 
	C94.698097,190.694275 99.851105,190.594116 105.607315,190.531204 
	C106.005501,190.482330 106.403687,190.433472 107.708809,190.759659 
	C116.349251,190.818314 124.990356,190.945282 133.629395,190.860733 
	C134.900879,190.848297 137.206787,189.926498 137.265991,189.266754 
	C137.812408,183.178619 139.927963,176.903488 136.014313,170.349854 
	C136.083221,169.365677 136.152130,168.381500 136.229095,167.282379 
	C123.451469,167.282379 110.781349,167.282379 98.111237,167.282379 
	C107.056114,168.002029 116.013351,167.789429 124.948090,168.143890 
	C127.333633,168.238525 129.650375,170.067474 131.245285,171.153168 
	C130.492874,171.097321 129.740448,171.041473 128.403076,170.392380 
	C115.253189,170.130829 102.103302,169.869034 88.952316,169.687302 
	C88.946259,169.687210 88.923477,170.897614 88.447762,172.314102 
	C88.297783,177.892868 88.147812,183.471619 88.046860,189.534378 
	C88.190697,189.860580 88.438988,190.049515 88.844551,190.190002 
M141.566254,168.295898 
	C141.294434,168.011139 141.022629,167.726364 140.750809,167.441605 
	C140.632965,167.554260 140.406479,167.758698 140.412949,167.766357 
	C140.666672,168.066727 140.941605,168.349213 141.566254,168.295898 
z"/>
<path fill="#B77C21" opacity="1.000000" stroke="none" 
	d="
M92.942360,106.083946 
	C100.922569,111.246017 109.403625,111.943344 118.455338,109.378120 
	C134.009506,104.970123 142.800385,93.654175 148.890060,79.724373 
	C156.352219,62.655087 157.682190,44.560879 157.044128,25.762863 
	C159.101959,25.264988 161.159500,25.214365 163.606644,25.640984 
	C163.717957,28.511665 163.439667,30.905109 163.122375,33.741066 
	C162.115234,44.074688 161.170502,53.968178 160.164062,63.855385 
	C159.880371,66.642273 159.415894,69.410767 158.796417,72.450401 
	C157.103195,76.154785 155.647888,79.596466 154.192596,83.038147 
	C149.758347,94.479782 142.524139,103.633827 132.233536,110.421928 
	C130.762756,111.392113 129.852264,113.303322 128.869904,114.894722 
	C128.006531,116.293404 127.781364,118.302238 126.627251,119.269577 
	C119.954666,124.862335 122.569389,131.434601 124.562660,137.811172 
	C125.589157,141.095032 127.405067,144.132126 128.947586,147.951630 
	C129.465271,149.001251 129.899643,149.379959 130.334015,149.758682 
	C130.334015,149.758682 130.112656,149.824356 130.141129,150.118439 
	C130.449936,151.319794 130.730286,152.227081 130.662582,153.060089 
	C127.199333,148.288071 123.175232,143.942657 121.185158,138.808762 
	C118.308701,131.388229 118.779793,131.027847 110.818382,129.926056 
	C109.515053,129.745697 108.248184,129.301910 106.789871,128.739990 
	C106.053368,128.342239 105.491447,128.184372 104.929527,128.026489 
	C104.902016,127.260788 104.874512,126.495087 105.366943,125.349709 
	C108.018021,124.992699 110.156937,125.142052 112.278702,125.011856 
	C116.802162,124.734306 121.115494,121.137283 122.191544,116.977173 
	C122.215157,116.932289 122.091812,116.946785 121.502625,116.962570 
	C113.565720,116.378586 106.094658,115.793312 98.623604,115.208038 
	C95.238754,111.994858 91.853897,108.781670 88.660339,105.267441 
	C89.224876,104.940453 89.598129,104.914513 90.224350,104.934631 
	C90.647797,104.994225 90.818268,105.007759 91.154121,105.262833 
	C91.860458,105.697571 92.401413,105.890755 92.942360,106.083946 
z"/>
<path fill="#2E333F" opacity="1.000000" stroke="none" 
	d="
M78.997559,193.000000 
	C78.403595,200.514648 83.804077,198.980164 88.107574,198.986145 
	C105.402817,199.010193 122.698334,199.032944 139.993027,198.932266 
	C141.607452,198.922867 143.216827,198.041214 144.828537,197.564560 
	C144.037567,196.157730 143.263992,194.740738 142.450500,193.347046 
	C141.713562,192.084549 140.933136,190.847427 139.891449,189.139221 
	C146.205917,187.873795 144.950912,182.971649 144.985703,178.664337 
	C145.025314,173.760651 145.004349,168.856491 145.012100,163.640991 
	C149.520203,162.293640 149.294678,165.279175 148.888367,168.695511 
	C148.738312,169.460754 148.850342,169.726089 148.962387,169.991409 
	C149.029602,178.689194 149.096817,187.386963 148.895691,196.630600 
	C148.744675,197.452225 148.862015,197.728012 148.979340,198.003784 
	C149.316376,198.331528 149.667023,198.957199 149.988419,198.942520 
	C155.162277,198.706024 156.446381,201.444183 155.046478,206.349701 
	C152.517609,207.419159 150.424301,208.108688 148.330994,208.798218 
	C145.007309,208.670959 141.683640,208.543701 137.671478,208.248749 
	C120.989929,208.039734 104.996834,207.998398 88.542847,207.868393 
	C82.363701,207.515961 76.645470,207.252213 70.927231,206.988464 
	C70.914749,205.276382 70.902275,203.564316 71.240982,201.355591 
	C71.525497,200.362442 71.458832,199.865921 71.392166,199.369400 
	C73.173843,199.253143 74.955521,199.136871 76.904236,199.009720 
	C76.991203,197.121506 77.066452,195.487686 77.511780,193.426361 
	C78.253761,192.999222 78.625664,192.999619 78.997559,193.000000 
M144.480347,192.590744 
	C144.480347,192.590744 144.412262,192.476990 144.480347,192.590744 
z"/>
<path fill="#E4A41D" opacity="1.000000" stroke="none" 
	d="
M61.979767,77.001282 
	C61.399563,76.508537 60.819363,76.015785 60.018936,75.025848 
	C59.507996,74.369324 59.217281,74.209999 58.926567,74.050667 
	C58.926567,74.050667 59.000137,74.008110 58.954468,73.702515 
	C57.792545,72.550659 56.676292,71.704399 55.560040,70.858131 
	C55.560040,70.858131 55.157597,70.606392 54.952709,70.136322 
	C54.419483,69.522690 54.091141,69.379135 53.762802,69.235573 
	C53.762802,69.235573 53.935528,69.142120 53.807091,68.928024 
	C52.998264,68.423531 52.317871,68.133125 51.637482,67.842720 
	C51.262173,67.576431 50.886868,67.310143 50.162941,66.650887 
	C49.628777,66.084991 49.411205,65.975845 49.161610,65.930489 
	C49.161610,65.930489 49.052593,65.914345 48.974117,65.645676 
	C48.694252,65.108772 48.426037,64.966515 48.090996,64.950233 
	C48.090996,64.950233 48.037781,65.003441 47.973732,64.634926 
	C47.185589,63.892578 46.461487,63.518742 45.737389,63.144909 
	C45.450638,63.079811 45.214012,62.933594 44.882805,62.229622 
	C44.414272,61.573090 44.090446,61.393188 43.766617,61.213295 
	C43.766617,61.213295 43.939995,61.051903 43.792595,60.856140 
	C43.289429,60.515903 42.933662,60.371422 42.577900,60.226940 
	C42.577900,60.226940 42.265457,60.094048 42.117897,59.632133 
	C40.977299,58.449219 39.984257,57.728214 38.991215,57.007210 
	C38.991215,57.007210 39.000000,57.000000 38.974197,56.665756 
	C38.199287,55.602806 37.450176,54.874104 36.701065,54.145401 
	C36.418781,54.042053 36.197445,53.863262 35.973892,53.051048 
	C34.974415,51.315075 34.038097,50.137074 33.101780,48.959076 
	C28.483696,41.587646 28.688063,34.100140 33.065651,26.384830 
	C34.092663,26.517006 34.615807,26.788666 35.226379,27.351753 
	C35.510197,28.423336 35.706585,29.203489 35.686333,30.163618 
	C35.316048,30.876303 35.162395,31.409012 34.673637,32.140198 
	C32.774536,35.357590 31.372606,38.364727 34.980072,41.006027 
	C34.991310,41.003567 34.988388,41.026104 34.977409,41.418251 
	C35.628769,43.264156 36.291100,44.717915 37.010365,46.508110 
	C40.467800,50.196175 43.868298,53.547798 47.551544,57.067776 
	C54.390625,62.688747 60.946960,68.141365 67.769699,73.815536 
	C66.732468,64.134232 65.768013,55.132164 64.870987,46.086685 
	C64.938416,46.043278 65.074104,45.957752 65.333237,46.235718 
	C66.158173,48.883389 66.723984,51.253098 67.289787,53.622810 
	C67.669769,53.515396 68.049759,53.407982 68.429741,53.300568 
	C68.944145,50.537727 69.458542,47.774891 70.004349,45.422607 
	C70.689590,50.222260 71.343422,54.611359 71.639687,58.993332 
	C70.033577,58.488815 68.785027,57.991421 66.969643,57.268211 
	C67.641701,60.108955 68.050804,62.340439 68.726532,64.488029 
	C69.077934,65.604843 69.900093,66.573524 70.509598,67.609123 
	C71.347839,66.724861 72.186081,65.840599 73.306282,65.184784 
	C74.741867,69.608360 75.895500,73.803505 76.691086,77.942917 
	C75.141983,75.899254 73.950935,73.911301 72.759888,71.923355 
	C72.261307,72.068848 71.762726,72.214340 71.264145,72.359833 
	C71.857216,74.976051 71.888153,77.918541 73.173416,80.133018 
	C75.166000,83.566200 75.471970,88.928612 81.512924,88.999908 
	C81.966812,89.339722 82.117340,89.610771 81.853363,90.081657 
	C80.380035,93.805527 80.577484,94.405472 83.568832,95.640678 
	C83.371040,93.964027 83.190041,92.429695 83.309776,91.054718 
	C85.425392,93.789726 87.240265,96.365372 89.036942,98.960350 
	C89.018745,98.979675 88.979362,99.015282 88.674255,98.880508 
	C84.587105,97.621582 86.488556,100.587341 86.041962,101.959747 
	C85.986855,102.016418 85.877373,102.130470 85.877373,102.130470 
	C82.087616,97.174873 78.337173,92.188332 74.478210,87.287231 
	C73.602921,86.175560 72.351089,85.360382 70.761566,84.709427 
	C69.564804,86.038399 68.879059,87.066666 68.193314,88.094925 
	C68.109383,88.412140 67.954567,88.689835 67.118782,88.988602 
	C65.285255,88.970627 64.061813,88.892059 62.707180,88.805061 
	C63.202534,87.343277 63.601360,86.166336 64.260376,84.777451 
	C64.633865,83.702408 64.747169,82.839317 64.860474,81.976219 
	C64.639038,81.192520 64.417603,80.408821 64.068802,79.001625 
	C63.287544,77.919182 62.633656,77.460228 61.979767,77.001282 
M70.382118,79.067291 
	C69.708717,79.266861 69.035316,79.466431 68.361908,79.666000 
	C68.400200,80.065605 68.438492,80.465218 68.476784,80.864822 
	C69.578186,80.864822 70.679581,80.864822 71.780983,80.864822 
	C71.531380,80.313721 71.281769,79.762627 70.382118,79.067291 
z"/>
<path fill="#E4A824" opacity="1.000000" stroke="none" 
	d="
M163.161392,33.298553 
	C163.439667,30.905109 163.717957,28.511665 164.042297,25.728420 
	C168.633163,17.652653 173.156311,15.208288 184.580536,19.242718 
	C187.686859,23.512163 191.228027,27.030989 192.892334,31.284237 
	C196.406845,40.265800 191.295853,47.672489 186.672501,55.160820 
	C181.902039,59.508690 177.427200,63.714867 172.662445,68.054855 
	C171.261063,68.816269 170.149597,69.443878 168.674774,70.055511 
	C167.566391,70.736313 166.821381,71.433098 165.882385,72.375946 
	C164.490128,73.465622 163.291824,74.309227 161.961456,74.849594 
	C162.548019,72.690781 163.266663,70.835213 163.989944,68.989426 
	C163.994568,68.999191 163.979279,68.985649 164.295959,68.964211 
	C165.026474,68.532387 165.440308,68.122002 165.844574,67.775955 
	C165.835022,67.840294 165.731918,67.760986 166.100403,67.812637 
	C168.281342,66.194603 170.093796,64.524910 171.942978,62.899887 
	C171.979721,62.944565 171.871826,62.902813 172.203552,62.906578 
	C172.926559,62.474548 173.317825,62.038750 173.674896,61.717659 
	C173.640671,61.832375 173.659943,61.593739 174.025620,61.685188 
	C174.890610,61.083328 175.389938,60.390018 176.058014,59.419388 
	C180.435638,54.265892 185.313690,49.806499 188.678299,44.404472 
	C192.587646,38.127876 190.824097,30.600782 185.629135,26.286232 
	C180.159225,21.743332 170.263107,22.688456 169.716080,30.741781 
	C169.397202,35.436169 166.219513,34.650845 163.161392,33.298553 
z"/>
<path fill="#E5A51C" opacity="1.000000" stroke="none" 
	d="
M98.686821,115.565735 
	C106.094658,115.793312 113.565720,116.378586 121.520409,116.982643 
	C122.004044,117.001427 122.044594,117.036552 122.044594,117.036552 
	C121.115494,121.137283 116.802162,124.734306 112.278702,125.011856 
	C110.156937,125.142052 108.018021,124.992699 105.433563,124.970634 
	C102.903503,121.955299 100.826775,118.939362 98.686821,115.565735 
z"/>
<path fill="#B48027" opacity="1.000000" stroke="none" 
	d="
M186.968124,55.019135 
	C191.295853,47.672489 196.406845,40.265800 192.892334,31.284237 
	C191.228027,27.030989 187.686859,23.512163 184.933228,19.319340 
	C191.351334,20.462193 196.439667,27.018818 197.086243,34.422268 
	C197.810333,42.712997 194.905365,49.565075 188.761261,55.556877 
	C187.871613,55.481731 187.419876,55.250431 186.968124,55.019135 
z"/>
<path fill="#E2A72A" opacity="1.000000" stroke="none" 
	d="
M163.985321,68.979652 
	C163.266663,70.835213 162.548019,72.690781 161.897751,75.195908 
	C161.148529,77.286537 160.169891,78.661880 159.549026,80.183228 
	C158.469543,82.828331 158.807816,84.832718 162.723953,84.840210 
	C165.380493,85.364380 168.869781,84.920761 167.818893,88.655693 
	C167.479874,89.860588 164.345535,90.306877 162.462433,91.028412 
	C162.030045,91.194084 161.484283,91.063812 160.990692,91.069740 
	C158.915283,88.516418 156.839874,85.963097 154.478531,83.223961 
	C155.647888,79.596466 157.103195,76.154785 159.095840,72.308846 
	C161.083893,70.929611 162.534607,69.954628 163.985321,68.979652 
z"/>
<path fill="#E2AC2F" opacity="1.000000" stroke="none" 
	d="
M86.667519,157.675949 
	C97.493446,151.322372 102.276093,141.208237 104.620712,129.166168 
	C104.958115,128.965317 105.139404,129.134369 105.101089,129.531494 
	C105.356606,133.638977 105.650444,137.349335 105.582611,141.117828 
	C103.367783,148.099213 98.960213,153.078690 92.781357,157.005600 
	C90.635895,157.378174 88.882408,157.753738 87.013535,158.016022 
	C86.898148,157.902710 86.667519,157.675949 86.667519,157.675949 
z"/>
<path fill="#E2E5ED" opacity="1.000000" stroke="none" 
	d="
M70.463600,206.983322 
	C76.645470,207.252213 82.363701,207.515961 88.543938,208.205261 
	C89.007439,209.079666 89.008949,209.528534 89.010460,209.977402 
	C76.078262,209.977402 63.146069,209.977402 50.213875,209.977402 
	C50.188999,209.175415 50.164127,208.373428 50.139252,207.571442 
	C53.262310,207.381302 56.383091,207.111618 59.509029,207.022202 
	C63.003567,206.922256 66.502785,206.985794 70.463600,206.983322 
z"/>
<path fill="#D7DBE4" opacity="1.000000" stroke="none" 
	d="
M89.477982,209.988510 
	C89.008949,209.528534 89.007439,209.079666 89.004837,208.293945 
	C104.996834,207.998398 120.989929,208.039734 137.263306,208.325363 
	C135.740326,209.049057 133.940247,209.929764 132.133270,209.944214 
	C118.071426,210.056702 104.008255,210.002365 89.477982,209.988510 
z"/>
<path fill="#E5A726" opacity="1.000000" stroke="none" 
	d="
M35.138950,27.060324 
	C34.615807,26.788666 34.092663,26.517006 33.297813,26.129255 
	C37.114346,22.790152 41.073402,19.374714 45.383110,16.481625 
	C46.439129,15.772724 48.641800,16.771950 50.616581,17.397434 
	C49.278374,19.779144 47.640881,21.749281 45.699150,23.901455 
	C44.053104,24.414331 42.711300,24.745169 41.002899,25.146812 
	C38.803852,25.831856 36.971401,26.446091 35.138950,27.060324 
z"/>
<path fill="#E6A827" opacity="1.000000" stroke="none" 
	d="
M46.003391,23.719418 
	C47.640881,21.749281 49.278374,19.779144 50.955368,17.480370 
	C53.145199,18.040369 55.295525,18.929010 57.719631,20.351742 
	C58.907505,23.133848 60.098431,25.316202 60.651943,27.649748 
	C61.132767,29.676846 62.229755,32.374809 58.345173,33.027260 
	C57.394260,30.755663 57.012901,28.482952 56.058884,26.483480 
	C55.544754,25.405941 54.049931,24.796322 52.949722,23.646534 
	C51.921112,23.258266 50.940361,23.199051 49.640755,23.249378 
	C48.215733,23.479088 47.109562,23.599253 46.003391,23.719418 
z"/>
<path fill="#DEE0E9" opacity="1.000000" stroke="none" 
	d="
M148.733154,209.192429 
	C150.424301,208.108688 152.517609,207.419159 154.951843,206.743408 
	C162.907974,206.940796 170.523193,207.124374 178.138428,207.307953 
	C178.123444,208.067505 178.108475,208.827072 178.093506,209.586639 
	C168.440781,209.586639 158.788040,209.586639 148.733154,209.192429 
z"/>
<path fill="#4D5665" opacity="1.000000" stroke="none" 
	d="
M78.720566,163.290298 
	C82.072311,163.882446 85.093056,164.439880 88.807198,165.106903 
	C89.338356,166.145157 89.176109,167.073822 89.013870,168.002487 
	C85.939941,169.335938 82.866005,170.669403 79.407265,171.587677 
	C78.429092,169.463608 77.835732,167.754715 77.242371,166.045807 
	C77.624763,165.115723 78.007164,164.185638 78.720566,163.290298 
z"/>
<path fill="#B0812E" opacity="1.000000" stroke="none" 
	d="
M162.337738,84.793655 
	C158.807816,84.832718 158.469543,82.828331 159.549026,80.183228 
	C160.169891,78.661880 161.148529,77.286537 162.029816,75.499153 
	C163.291824,74.309227 164.490128,73.465622 166.189743,72.311722 
	C167.473419,71.358109 168.255783,70.714798 169.038147,70.071487 
	C170.149597,69.443878 171.261063,68.816269 172.870972,68.160843 
	C173.636246,68.312004 173.827942,68.551178 173.944519,68.850555 
	C170.343079,72.316986 166.741638,75.783409 162.738953,79.809761 
	C162.337723,81.844337 162.337738,83.319000 162.337738,84.793655 
z"/>
<path fill="#B58A3D" opacity="1.000000" stroke="none" 
	d="
M131.010620,153.134369 
	C130.730286,152.227081 130.449936,151.319794 130.238647,150.056641 
	C133.479935,152.194916 136.824112,154.507614 139.740463,157.271713 
	C140.920532,158.390182 141.166840,160.493866 141.861023,162.537918 
	C140.520981,162.959946 139.157990,162.993271 137.394043,162.758270 
	C136.993088,162.489929 137.002304,162.049500 137.027405,161.660187 
	C135.038528,158.558701 133.024582,155.846527 131.010620,153.134369 
z"/>
<path fill="#B88937" opacity="1.000000" stroke="none" 
	d="
M174.268616,68.764946 
	C173.827942,68.551178 173.636246,68.312004 173.160904,68.027039 
	C177.427200,63.714867 181.902039,59.508690 186.672501,55.160820 
	C187.419876,55.250431 187.871613,55.481731 188.552582,55.824341 
	C184.052094,60.183552 179.322403,64.431442 174.268616,68.764946 
z"/>
<path fill="#DFA527" opacity="1.000000" stroke="none" 
	d="
M64.000191,84.989403 
	C63.601360,86.166336 63.202534,87.343277 62.707180,88.805061 
	C64.061813,88.892059 65.285255,88.970627 66.897476,89.082512 
	C64.087723,92.244812 60.751804,92.707382 57.077461,88.940048 
	C57.001568,87.206474 57.081894,86.166664 57.162220,85.126854 
	C57.162220,85.126854 57.052750,85.040054 57.323803,85.058563 
	C57.594856,85.077072 57.997982,84.807426 57.997982,84.807426 
	C58.474308,84.749947 58.950634,84.692459 60.133949,84.698090 
	C61.894024,84.837273 62.947105,84.913338 64.000191,84.989403 
z"/>
<path fill="#F2E2C5" opacity="1.000000" stroke="none" 
	d="
M162.723953,84.840210 
	C162.337738,83.319000 162.337723,81.844337 162.629150,80.124146 
	C164.050385,81.219994 164.982330,83.392540 166.353699,83.718979 
	C168.750153,84.289429 171.554794,84.404800 170.810822,87.450653 
	C170.351730,89.330185 168.128662,91.165260 166.244232,92.170715 
	C165.041977,92.812187 163.010971,91.900398 161.171112,91.377380 
	C161.484283,91.063812 162.030045,91.194084 162.462433,91.028412 
	C164.345535,90.306877 167.479874,89.860588 167.818893,88.655693 
	C168.869781,84.920761 165.380493,85.364380 162.723953,84.840210 
z"/>
<path fill="#B6812A" opacity="1.000000" stroke="none" 
	d="
M58.676273,33.139923 
	C62.229755,32.374809 61.132767,29.676846 60.651943,27.649748 
	C60.098431,25.316202 58.907505,23.133848 57.992859,20.510994 
	C60.124264,21.880060 62.256218,23.623964 64.702896,25.350925 
	C64.994453,25.692955 64.971298,26.051928 64.642120,26.736624 
	C64.518463,27.774990 64.700806,28.487629 64.883156,29.200270 
	C64.879974,29.604481 64.876801,30.008692 64.849419,31.030190 
	C64.456032,32.134209 64.086853,32.620945 63.427486,33.300049 
	C61.650288,33.374920 60.163280,33.257420 58.676273,33.139923 
z"/>
<path fill="#2E313E" opacity="1.000000" stroke="none" 
	d="
M78.999001,192.533142 
	C78.625664,192.999619 78.253761,192.999222 77.602913,193.000336 
	C77.263069,187.975357 77.202171,182.948868 77.510437,177.463074 
	C78.252563,177.002487 78.625519,177.001251 78.998474,177.000000 
	C78.999130,182.022095 78.999786,187.044189 78.999001,192.533142 
z"/>
<path fill="#2E333F" opacity="1.000000" stroke="none" 
	d="
M79.000015,176.581177 
	C78.625519,177.001251 78.252563,177.002487 77.599869,177.004333 
	C77.245720,173.652374 77.171310,170.299850 77.169632,166.496552 
	C77.835732,167.754715 78.429092,169.463608 79.023773,171.569275 
	C79.017250,173.364792 79.009407,174.763565 79.000015,176.581177 
z"/>
<path fill="#DFA527" opacity="1.000000" stroke="none" 
	d="
M68.518478,88.022110 
	C68.879059,87.066666 69.564804,86.038399 70.581802,85.002388 
	C70.223259,85.979523 69.533447,86.964409 68.518478,88.022110 
z"/>
<path fill="#F9F2DC" opacity="1.000000" stroke="none" 
	d="
M64.260376,84.777451 
	C62.947105,84.913338 61.894024,84.837273 60.480652,84.597694 
	C61.495705,83.654099 62.871044,82.874008 64.553429,82.035065 
	C64.747169,82.839317 64.633865,83.702408 64.260376,84.777451 
z"/>
<path fill="#F9F2DC" opacity="1.000000" stroke="none" 
	d="
M56.807228,85.137001 
	C57.081894,86.166664 57.001568,87.206474 56.884266,88.636414 
	C54.257278,87.983749 54.253025,86.677643 56.807228,85.137001 
z"/>
<path fill="#DDB34D" opacity="1.000000" stroke="none" 
	d="
M33.131668,49.292912 
	C34.038097,50.137074 34.974415,51.315075 35.894173,52.849800 
	C34.972260,52.013268 34.066906,50.820007 33.131668,49.292912 
z"/>
<path fill="#E2AC2F" opacity="1.000000" stroke="none" 
	d="
M85.986740,162.904419 
	C85.986740,162.904419 85.562355,162.998215 85.356972,162.931137 
	C85.446106,161.255295 85.740623,159.646530 86.351334,157.856857 
	C86.667519,157.675949 86.898148,157.902710 86.965607,158.397034 
	C87.024689,159.923355 87.016312,160.955338 86.792130,162.084320 
	C86.299141,162.356583 86.102608,162.597626 85.986740,162.904419 
z"/>
<path fill="#E4A41D" opacity="1.000000" stroke="none" 
	d="
M89.971375,104.888573 
	C89.598129,104.914513 89.224876,104.940453 88.570641,104.952484 
	C87.558044,104.198662 86.826439,103.458755 85.986107,102.424652 
	C85.877373,102.130470 85.986855,102.016418 86.402130,101.992165 
	C87.543228,101.976891 88.269043,101.985870 88.997429,101.997421 
	C89.000000,102.000000 89.005280,102.005157 89.025925,102.314423 
	C89.354836,103.378647 89.663109,104.133606 89.971375,104.888573 
z"/>
<path fill="#DDB34D" opacity="1.000000" stroke="none" 
	d="
M55.650055,71.149330 
	C56.676292,71.704399 57.792545,72.550659 58.926895,73.734901 
	C57.876690,73.195427 56.808380,72.317978 55.650055,71.149330 
z"/>
<path fill="#DDB34D" opacity="1.000000" stroke="none" 
	d="
M39.078629,57.306892 
	C39.984257,57.728214 40.977299,58.449219 42.017036,59.495583 
	C41.097839,59.082821 40.131943,58.344696 39.078629,57.306892 
z"/>
<path fill="#DDB34D" opacity="1.000000" stroke="none" 
	d="
M36.770370,54.468956 
	C37.450176,54.874104 38.199287,55.602806 38.970810,56.670006 
	C38.275379,56.269836 37.557526,55.531170 36.770370,54.468956 
z"/>
<path fill="#DDB34D" opacity="1.000000" stroke="none" 
	d="
M45.858734,63.434376 
	C46.461487,63.518742 47.185589,63.892578 47.976135,64.597382 
	C47.355083,64.526840 46.667583,64.125343 45.858734,63.434376 
z"/>
<path fill="#DDB34D" opacity="1.000000" stroke="none" 
	d="
M62.015472,77.324188 
	C62.633656,77.460228 63.287544,77.919182 63.957405,78.708160 
	C63.332649,78.574486 62.691914,78.110786 62.015472,77.324188 
z"/>
<path fill="#DDB34D" opacity="1.000000" stroke="none" 
	d="
M51.701881,68.117111 
	C52.317871,68.133125 52.998264,68.423531 53.739994,68.999725 
	C53.122986,68.987503 52.444633,68.689499 51.701881,68.117111 
z"/>
<path fill="#B58A3D" opacity="1.000000" stroke="none" 
	d="
M130.268066,149.477173 
	C129.899643,149.379959 129.465271,149.001251 129.017731,148.303314 
	C129.403763,148.387955 129.802933,148.791824 130.268066,149.477173 
z"/>
<path fill="#E2AC2F" opacity="1.000000" stroke="none" 
	d="
M104.841034,128.209625 
	C105.491447,128.184372 106.053368,128.342239 106.484039,128.748260 
	C105.948334,129.042404 105.543869,129.088394 105.139404,129.134369 
	C105.139404,129.134369 104.958115,128.965317 104.866028,128.882172 
	C104.773941,128.799026 104.752541,128.392776 104.841034,128.209625 
z"/>
<path fill="#DDB34D" opacity="1.000000" stroke="none" 
	d="
M53.866753,69.480881 
	C54.091141,69.379135 54.419483,69.522690 54.819622,69.939804 
	C54.584515,70.050957 54.277607,69.888573 53.866753,69.480881 
z"/>
<path fill="#DDB34D" opacity="1.000000" stroke="none" 
	d="
M59.014053,74.298920 
	C59.217281,74.209999 59.507996,74.369324 59.903008,74.761276 
	C59.705383,74.844994 59.403461,74.696083 59.014053,74.298920 
z"/>
<path fill="#E2E5ED" opacity="1.000000" stroke="none" 
	d="
M71.252411,199.767822 
	C71.458832,199.865921 71.525497,200.362442 71.298950,200.931442 
	C71.041374,200.724716 71.077011,200.445496 71.252411,199.767822 
z"/>
<path fill="#1A1D24" opacity="1.000000" stroke="none" 
	d="
M149.046173,197.754333 
	C148.862015,197.728012 148.744675,197.452225 148.802063,197.091553 
	C149.022186,197.172714 149.067596,197.338791 149.046173,197.754333 
z"/>
<path fill="#F9F2DC" opacity="1.000000" stroke="none" 
	d="
M57.472794,82.451248 
	C57.525032,82.420822 57.420551,82.481667 57.472794,82.451248 
z"/>
<path fill="#F9F2DC" opacity="1.000000" stroke="none" 
	d="
M57.872253,84.670349 
	C57.997982,84.807426 57.594856,85.077072 57.356461,85.120316 
	C57.327553,84.953461 57.537037,84.743370 57.872253,84.670349 
z"/>
<path fill="#DDB34D" opacity="1.000000" stroke="none" 
	d="
M49.203163,66.141724 
	C49.411205,65.975845 49.628777,66.084991 49.912441,66.412140 
	C50.010555,66.566368 49.584244,66.615364 49.584244,66.615364 
	C49.584244,66.615364 49.244717,66.352951 49.203163,66.141724 
z"/>
<path fill="#1A1D24" opacity="1.000000" stroke="none" 
	d="
M149.027939,169.746155 
	C148.850342,169.726089 148.738312,169.460754 148.787872,169.104721 
	C148.997467,169.176300 149.045471,169.338593 149.027939,169.746155 
z"/>
<path fill="#DDB34D" opacity="1.000000" stroke="none" 
	d="
M42.697670,60.483814 
	C42.933662,60.371422 43.289429,60.515903 43.723053,60.952011 
	C43.473087,61.075993 43.145260,60.908340 42.697670,60.483814 
z"/>
<path fill="#DDB34D" opacity="1.000000" stroke="none" 
	d="
M48.216236,65.134918 
	C48.426037,64.966515 48.694252,65.108772 48.986984,65.592102 
	C48.787979,65.712257 48.542362,65.549736 48.216236,65.134918 
z"/>
<path fill="#4D5665" opacity="1.000000" stroke="none" 
	d="
M83.747849,163.166519 
	C83.727539,163.346786 83.453293,163.454010 83.085480,163.409927 
	C83.159241,163.203568 83.326576,163.148514 83.747849,163.166519 
z"/>
<path fill="#DDB34D" opacity="1.000000" stroke="none" 
	d="
M43.857689,61.469570 
	C44.090446,61.393188 44.414272,61.573090 44.782959,62.042992 
	C44.534801,62.130615 44.241779,61.928230 43.857689,61.469570 
z"/>
<path fill="#FDCA60" opacity="1.000000" stroke="none" 
	d="
M82.164909,89.939003 
	C82.117340,89.610771 81.966812,89.339722 81.448349,88.638809 
	C80.768394,86.762039 80.353409,85.372330 79.853874,83.753220 
	C79.589821,83.235748 79.342537,83.028496 79.003624,82.567520 
	C78.336227,80.821526 77.692680,79.410080 77.049133,77.998642 
	C75.895500,73.803505 74.741867,69.608360 73.295593,64.798508 
	C72.667725,62.456017 72.332489,60.728237 71.997253,59.000458 
	C71.343422,54.611359 70.689590,50.222260 70.020355,45.045212 
	C69.972710,43.503448 69.940453,42.749630 69.924454,41.552284 
	C69.625450,37.736443 69.310211,34.364128 68.994965,30.991817 
	C69.443710,30.942322 69.892456,30.892828 71.001968,30.849630 
	C72.107010,30.809441 72.551300,30.762953 72.995583,30.716467 
	C74.874191,30.955645 76.752792,31.194822 78.864182,32.119755 
	C79.371567,34.549404 79.646164,36.293304 79.920769,38.037201 
	C80.619896,55.843193 81.988266,73.536880 88.854729,91.045685 
	C89.535767,92.944427 90.463303,94.130608 90.467621,95.320137 
	C90.471985,96.525375 89.563690,97.733925 89.055130,98.941025 
	C87.240265,96.365372 85.425392,93.789726 83.121231,90.942642 
	C82.396286,90.478188 82.240608,90.234116 82.164909,89.939003 
z"/>
<path fill="#E4A41D" opacity="1.000000" stroke="none" 
	d="
M89.036942,98.960350 
	C89.563690,97.733925 90.471985,96.525375 90.467621,95.320137 
	C90.463303,94.130608 89.535767,92.944427 89.010460,91.377518 
	C90.284279,91.981056 91.833267,92.757729 92.771072,93.996933 
	C94.048309,95.684639 94.859123,97.725311 95.944221,99.753502 
	C95.912392,99.766296 95.187408,100.057701 94.065079,100.690689 
	C93.589035,101.161682 93.412659,101.353806 93.448524,101.409668 
	C93.604355,101.652374 93.822044,101.855377 94.017258,102.072800 
	C93.755997,103.193916 93.494736,104.315025 93.087921,105.760040 
	C92.401413,105.890755 91.860458,105.697571 91.281860,104.957779 
	C90.497910,103.609161 89.751595,102.807159 89.005280,102.005157 
	C89.005280,102.005157 89.000000,102.000000 89.000488,101.624931 
	C88.993767,100.505005 88.986565,99.760139 88.979362,99.015282 
	C88.979362,99.015282 89.018745,98.979675 89.036942,98.960350 
z"/>
<path fill="#E4A41D" opacity="1.000000" stroke="none" 
	d="
M68.801826,30.746416 
	C69.310211,34.364128 69.625450,37.736443 69.552368,41.462547 
	C68.582802,39.222237 68.001564,36.628128 67.420334,34.034023 
	C67.162163,33.953255 66.903999,33.872486 66.645828,33.791714 
	C66.121918,37.847061 65.598007,41.902405 65.074104,45.957752 
	C65.074104,45.957752 64.938416,46.043278 64.688126,45.716446 
	C64.197784,41.295635 63.957733,37.201660 63.717682,33.107681 
	C64.086853,32.620945 64.456032,32.134209 64.863174,31.333088 
	C66.136986,30.846140 67.372833,30.673576 68.801826,30.746416 
z"/>
<path fill="#E4A41D" opacity="1.000000" stroke="none" 
	d="
M80.210846,37.793076 
	C79.646164,36.293304 79.371567,34.549404 79.146965,32.408432 
	C79.631622,33.857224 80.066277,35.703087 80.210846,37.793076 
z"/>
<path fill="#E4A41D" opacity="1.000000" stroke="none" 
	d="
M64.922630,28.825285 
	C64.700806,28.487629 64.518463,27.774990 64.624840,27.005856 
	C64.929749,27.449673 64.945930,27.949987 64.922630,28.825285 
z"/>
<path fill="#E4A41D" opacity="1.000000" stroke="none" 
	d="
M72.945374,30.456898 
	C72.551300,30.762953 72.107010,30.809441 71.333801,30.780975 
	C71.634972,30.536459 72.265068,30.366896 72.945374,30.456898 
z"/>
<path fill="#FDCA60" opacity="1.000000" stroke="none" 
	d="
M94.026627,101.741867 
	C93.822044,101.855377 93.604355,101.652374 93.448524,101.409668 
	C93.412659,101.353806 93.589035,101.161682 93.853127,100.890533 
	C94.037674,100.969513 94.036835,101.190216 94.026627,101.741867 
z"/>
<path fill="#E7A619" opacity="1.000000" stroke="none" 
	d="
M87.997833,189.050385 
	C88.147812,183.471619 88.297783,177.892868 89.117805,171.955414 
	C92.098862,171.625168 94.409866,171.653610 97.114143,171.760406 
	C97.769096,171.784149 98.030785,171.729523 98.741562,171.646820 
	C109.023125,171.625259 118.855598,171.631805 129.042725,171.799255 
	C129.729996,173.318039 130.652130,174.861221 130.293610,176.001892 
	C128.700775,181.069672 124.769485,184.037308 120.027817,185.872360 
	C115.687195,187.552216 111.215698,188.893906 106.801872,190.384598 
	C106.403687,190.433472 106.005501,190.482330 104.948502,190.333069 
	C99.174835,190.161255 94.059967,190.187546 88.945107,190.213837 
	C88.945107,190.213837 88.844551,190.190002 88.788033,189.908386 
	C88.572044,189.326385 88.327484,189.134262 87.997833,189.050385 
M102.526459,175.247986 
	C102.841629,175.141464 103.202515,175.097183 103.458069,174.909485 
	C103.677498,174.748291 103.776535,174.423203 103.896385,174.224396 
	C99.497337,174.224396 95.070679,174.224396 90.303665,174.224396 
	C90.303665,176.737122 90.303665,178.942581 90.303665,181.415146 
	C94.307007,179.376740 98.088943,177.451065 102.526459,175.247986 
z"/>
<path fill="#AC7825" opacity="1.000000" stroke="none" 
	d="
M107.255341,190.572128 
	C111.215698,188.893906 115.687195,187.552216 120.027817,185.872360 
	C124.769485,184.037308 128.700775,181.069672 130.293610,176.001892 
	C130.652130,174.861221 129.729996,173.318039 129.108215,171.632111 
	C128.819031,171.304092 128.988037,170.985611 128.988037,170.985611 
	C129.740448,171.041473 130.492874,171.097321 132.022629,171.159454 
	C133.872665,171.148895 134.945374,171.132065 136.018066,171.115219 
	C139.927963,176.903488 137.812408,183.178619 137.265991,189.266754 
	C137.206787,189.926498 134.900879,190.848297 133.629395,190.860733 
	C124.990356,190.945282 116.349251,190.818314 107.255341,190.572128 
z"/>
<path fill="#1F3842" opacity="1.000000" stroke="none" 
	d="
M128.695557,170.688995 
	C128.988037,170.985611 128.819031,171.304092 128.753540,171.471222 
	C118.855598,171.631805 109.023125,171.625259 98.567154,171.504578 
	C97.536049,171.487640 97.128464,171.584854 96.720879,171.682068 
	C94.409866,171.653610 92.098862,171.625168 89.348175,171.569626 
	C88.923477,170.897614 88.946259,169.687210 88.952316,169.687302 
	C102.103302,169.869034 115.253189,170.130829 128.695557,170.688995 
z"/>
<path fill="#373A58" opacity="1.000000" stroke="none" 
	d="
M136.016190,170.732544 
	C134.945374,171.132065 133.872665,171.148895 132.399338,171.132965 
	C129.650375,170.067474 127.333633,168.238525 124.948090,168.143890 
	C116.013351,167.789429 107.056114,168.002029 98.111237,167.282379 
	C110.781349,167.282379 123.451469,167.282379 136.229095,167.282379 
	C136.152130,168.381500 136.083221,169.365677 136.016190,170.732544 
z"/>
<path fill="#D5AD39" opacity="1.000000" stroke="none" 
	d="
M86.452286,162.976334 
	C86.102608,162.597626 86.299141,162.356583 87.259888,162.091949 
	C104.296402,162.018204 120.649353,162.033859 137.002304,162.049500 
	C137.002304,162.049500 136.993088,162.489929 136.984283,162.709869 
	C120.289589,162.969299 103.603706,163.008774 86.452286,162.976334 
z"/>
<path fill="#373A58" opacity="1.000000" stroke="none" 
	d="
M89.416733,168.002304 
	C89.176109,167.073822 89.338356,166.145157 89.252632,165.100189 
	C91.272575,164.549118 93.540489,164.114349 95.812622,163.678787 
	C95.254219,165.374908 94.851486,166.598175 94.389275,168.002121 
	C93.062317,168.002121 91.440956,168.002121 89.416733,168.002304 
z"/>
<path fill="#AC7825" opacity="1.000000" stroke="none" 
	d="
M89.245094,190.504135 
	C94.059967,190.187546 99.174835,190.161255 104.646912,190.314453 
	C99.851105,190.594116 94.698097,190.694275 89.245094,190.504135 
z"/>
<path fill="#2E333F" opacity="1.000000" stroke="none" 
	d="
M141.390015,168.464966 
	C140.941605,168.349213 140.666672,168.066727 140.412949,167.766357 
	C140.406479,167.758698 140.632965,167.554260 140.750809,167.441605 
	C141.022629,167.726364 141.294434,168.011139 141.390015,168.464966 
z"/>
<path fill="#AC7825" opacity="1.000000" stroke="none" 
	d="
M88.022346,189.292389 
	C88.327484,189.134262 88.572044,189.326385 88.761627,189.863983 
	C88.438988,190.049515 88.190697,189.860580 88.022346,189.292389 
z"/>
<path fill="#FDFCF5" opacity="1.000000" stroke="none" 
	d="
M163.989944,68.989426 
	C162.534607,69.954628 161.083893,70.929611 159.333771,72.046143 
	C159.415894,69.410767 159.880371,66.642273 160.164062,63.855385 
	C161.170502,53.968178 162.115234,44.074688 163.122375,33.741066 
	C166.219513,34.650845 169.397202,35.436169 169.716080,30.741781 
	C170.263107,22.688456 180.159225,21.743332 185.629135,26.286232 
	C190.824097,30.600782 192.587646,38.127876 188.678299,44.404472 
	C185.313690,49.806499 180.435638,54.265892 175.757080,59.503628 
	C174.744919,60.441376 174.202438,61.017559 173.659943,61.593742 
	C173.659943,61.593739 173.640671,61.832375 173.374954,61.742588 
	C172.696762,62.069473 172.284302,62.486141 171.871826,62.902813 
	C171.871826,62.902813 171.979721,62.944565 171.605072,62.963341 
	C169.397598,64.575073 167.564758,66.168030 165.731918,67.760986 
	C165.731918,67.760986 165.835022,67.840294 165.543335,67.808418 
	C164.827530,68.179581 164.403412,68.582611 163.979279,68.985649 
	C163.979279,68.985649 163.994568,68.999191 163.989944,68.989426 
z"/>
<path fill="#E7A516" opacity="1.000000" stroke="none" 
	d="
M137.027405,161.660187 
	C120.649353,162.033859 104.296402,162.018204 87.475693,161.994949 
	C87.016312,160.955338 87.024689,159.923355 87.080994,158.510345 
	C88.882408,157.753738 90.635895,157.378174 92.802971,157.406006 
	C96.189056,158.189148 99.162354,158.562714 102.133812,158.950363 
	C105.240509,159.355682 106.175636,157.862808 106.058914,154.931366 
	C105.875031,150.313263 105.968323,145.684143 105.944275,141.059677 
	C105.650444,137.349335 105.356606,133.638977 105.101089,129.531494 
	C105.543869,129.088394 105.948334,129.042404 106.658630,128.988144 
	C108.248184,129.301910 109.515053,129.745697 110.818382,129.926056 
	C118.779793,131.027847 118.308701,131.388229 121.185158,138.808762 
	C123.175232,143.942657 127.199333,148.288071 130.662582,153.060089 
	C133.024582,155.846527 135.038528,158.558701 137.027405,161.660187 
z"/>
<path fill="#E7A616" opacity="1.000000" stroke="none" 
	d="
M89.025925,102.314423 
	C89.751595,102.807159 90.497910,103.609161 91.116470,104.716232 
	C90.818268,105.007759 90.647797,104.994225 90.224350,104.934631 
	C89.663109,104.133606 89.354836,103.378647 89.025925,102.314423 
z"/>
<path fill="#E5A51C" opacity="1.000000" stroke="none" 
	d="
M121.986252,116.981354 
	C122.091812,116.946785 122.215157,116.932289 122.191544,116.977173 
	C122.044594,117.036552 122.004044,117.001427 121.986252,116.981354 
z"/>
<path fill="#3A3E47" opacity="1.000000" stroke="none" 
	d="
M144.446304,192.533875 
	C144.412262,192.476990 144.480347,192.590744 144.446304,192.533875 
z"/>
<path fill="#FDFBF5" opacity="1.000000" stroke="none" 
	d="
M63.427490,33.300049 
	C63.957733,37.201660 64.197784,41.295635 64.620697,45.759857 
	C65.768013,55.132164 66.732468,64.134232 67.769699,73.815536 
	C60.946960,68.141365 54.390625,62.688747 47.461216,56.730980 
	C45.687832,54.632641 44.307659,53.021210 42.883690,51.449448 
	C37.010471,44.966663 34.485386,37.790306 38.219200,29.287048 
	C38.201412,29.281092 38.208111,29.249046 38.453072,29.132439 
	C38.841969,28.691351 38.985905,28.366873 39.419876,27.892365 
	C40.263111,26.853559 40.816303,25.964781 41.369499,25.076004 
	C42.711300,24.745169 44.053104,24.414331 45.699150,23.901457 
	C47.109562,23.599253 48.215733,23.479088 49.925926,23.408495 
	C51.352489,23.630573 52.175037,23.803078 52.997581,23.975586 
	C54.049931,24.796322 55.544754,25.405941 56.058884,26.483480 
	C57.012901,28.482952 57.394260,30.755663 58.345173,33.027260 
	C60.163280,33.257420 61.650288,33.374920 63.427490,33.300049 
z"/>
<path fill="#E7A616" opacity="1.000000" stroke="none" 
	d="
M76.691086,77.942917 
	C77.692680,79.410080 78.336227,80.821526 79.085510,82.801308 
	C79.365547,83.665138 79.614609,83.869461 79.938423,83.982613 
	C80.353409,85.372330 80.768394,86.762039 81.247955,88.512863 
	C75.471970,88.928612 75.166000,83.566200 73.173416,80.133018 
	C71.888153,77.918541 71.857216,74.976051 71.264145,72.359833 
	C71.762726,72.214340 72.261307,72.068848 72.759888,71.923355 
	C73.950935,73.911301 75.141983,75.899254 76.691086,77.942917 
z"/>
<path fill="#B6873A" opacity="1.000000" stroke="none" 
	d="
M38.236984,29.293007 
	C34.485386,37.790306 37.010471,44.966663 42.883690,51.449448 
	C44.307659,53.021210 45.687832,54.632641 47.178474,56.562626 
	C43.868298,53.547798 40.467800,50.196175 37.002777,46.139027 
	C36.288303,43.964371 35.638348,42.495235 34.988388,41.026104 
	C34.988388,41.026104 34.991310,41.003567 35.003777,40.554974 
	C35.013744,37.384827 35.011246,34.663277 35.008743,31.941723 
	C35.162395,31.409012 35.316048,30.876303 35.984917,30.079573 
	C37.079086,29.641373 37.658035,29.467190 38.236984,29.293007 
z"/>
<path fill="#E7A616" opacity="1.000000" stroke="none" 
	d="
M65.333237,46.235718 
	C65.598007,41.902405 66.121918,37.847061 66.645828,33.791714 
	C66.903999,33.872486 67.162163,33.953255 67.420334,34.034023 
	C68.001564,36.628128 68.582802,39.222237 69.536118,41.906078 
	C69.940453,42.749630 69.972710,43.503448 69.988953,44.634659 
	C69.458542,47.774891 68.944145,50.537727 68.429741,53.300568 
	C68.049759,53.407982 67.669769,53.515396 67.289787,53.622810 
	C66.723984,51.253098 66.158173,48.883389 65.333237,46.235718 
z"/>
<path fill="#E7A616" opacity="1.000000" stroke="none" 
	d="
M71.639687,58.993332 
	C72.332489,60.728237 72.667725,62.456017 73.013641,64.570068 
	C72.186081,65.840599 71.347839,66.724861 70.509598,67.609123 
	C69.900093,66.573524 69.077934,65.604843 68.726532,64.488029 
	C68.050804,62.340439 67.641701,60.108955 66.969643,57.268211 
	C68.785027,57.991421 70.033577,58.488815 71.639687,58.993332 
z"/>
<path fill="#B87E1E" opacity="1.000000" stroke="none" 
	d="
M34.673637,32.140198 
	C35.011246,34.663277 35.013744,37.384827 34.992538,40.557434 
	C31.372606,38.364727 32.774536,35.357590 34.673637,32.140198 
z"/>
<path fill="#E7A616" opacity="1.000000" stroke="none" 
	d="
M81.853363,90.081657 
	C82.240608,90.234116 82.396286,90.478188 82.820488,90.783295 
	C83.190041,92.429695 83.371040,93.964027 83.568832,95.640678 
	C80.577484,94.405472 80.380035,93.805527 81.853363,90.081657 
z"/>
<path fill="#B87E1E" opacity="1.000000" stroke="none" 
	d="
M38.219200,29.287048 
	C37.658035,29.467190 37.079086,29.641373 36.201553,29.899599 
	C35.706585,29.203489 35.510197,28.423336 35.226379,27.351753 
	C36.971401,26.446091 38.803852,25.831856 41.002899,25.146812 
	C40.816303,25.964781 40.263111,26.853559 39.164490,28.000881 
	C38.482075,28.589298 38.345093,28.919172 38.208111,29.249046 
	C38.208111,29.249046 38.201412,29.281092 38.219200,29.287048 
z"/>
<path fill="#E7A616" opacity="1.000000" stroke="none" 
	d="
M88.674255,98.880508 
	C88.986565,99.760139 88.993767,100.505005 88.997910,101.622360 
	C88.269043,101.985870 87.543228,101.976891 86.457245,101.935501 
	C86.488556,100.587341 84.587105,97.621582 88.674255,98.880508 
z"/>
<path fill="#DFA527" opacity="1.000000" stroke="none" 
	d="
M70.707138,79.139404 
	C71.281769,79.762627 71.531380,80.313721 71.780983,80.864822 
	C70.679581,80.864822 69.578186,80.864822 68.476784,80.864822 
	C68.438492,80.465218 68.400200,80.065605 68.361908,79.666000 
	C69.035316,79.466431 69.708717,79.266861 70.707138,79.139404 
z"/>
<path fill="#B87E1E" opacity="1.000000" stroke="none" 
	d="
M34.977409,41.418251 
	C35.638348,42.495235 36.288303,43.964371 36.945847,45.802589 
	C36.291100,44.717915 35.628769,43.264156 34.977409,41.418251 
z"/>
<path fill="#E2A72A" opacity="1.000000" stroke="none" 
	d="
M166.100403,67.812637 
	C167.564758,66.168030 169.397598,64.575073 171.568329,62.918667 
	C170.093796,64.524910 168.281342,66.194603 166.100403,67.812637 
z"/>
<path fill="#E2A72A" opacity="1.000000" stroke="none" 
	d="
M168.674774,70.055511 
	C168.255783,70.714798 167.473419,71.358109 166.383698,72.065643 
	C166.821381,71.433098 167.566391,70.736313 168.674774,70.055511 
z"/>
<path fill="#E2A72A" opacity="1.000000" stroke="none" 
	d="
M174.025620,61.685188 
	C174.202438,61.017559 174.744919,60.441376 175.588318,59.780949 
	C175.389938,60.390018 174.890610,61.083328 174.025620,61.685188 
z"/>
<path fill="#E2A72A" opacity="1.000000" stroke="none" 
	d="
M172.203552,62.906578 
	C172.284302,62.486141 172.696762,62.069473 173.409180,61.627876 
	C173.317825,62.038750 172.926559,62.474548 172.203552,62.906578 
z"/>
<path fill="#E2A72A" opacity="1.000000" stroke="none" 
	d="
M164.295959,68.964211 
	C164.403412,68.582611 164.827530,68.179581 165.552902,67.744080 
	C165.440308,68.122002 165.026474,68.532387 164.295959,68.964211 
z"/>
<path fill="#FCCA5A" opacity="1.000000" stroke="none" 
	d="
M105.582603,141.117828 
	C105.968323,145.684143 105.875031,150.313263 106.058914,154.931366 
	C106.175636,157.862808 105.240509,159.355682 102.133812,158.950363 
	C99.162354,158.562714 96.189056,158.189148 93.194946,157.408997 
	C98.960213,153.078690 103.367783,148.099213 105.582603,141.117828 
z"/>
<path fill="#E5A726" opacity="1.000000" stroke="none" 
	d="
M52.949722,23.646532 
	C52.175037,23.803078 51.352489,23.630573 50.244778,23.298954 
	C50.940361,23.199051 51.921112,23.258266 52.949722,23.646532 
z"/>
<path fill="#E4A41D" opacity="1.000000" stroke="none" 
	d="
M79.853874,83.753220 
	C79.614609,83.869461 79.365547,83.665138 79.109360,83.135864 
	C79.342537,83.028496 79.589821,83.235748 79.853874,83.753220 
z"/>
<path fill="#FBC959" opacity="1.000000" stroke="none" 
	d="
M102.198669,175.386688 
	C98.088943,177.451065 94.307007,179.376740 90.303665,181.415146 
	C90.303665,178.942581 90.303665,176.737122 90.303665,174.224396 
	C95.070679,174.224396 99.497337,174.224396 103.896385,174.224396 
	C103.776535,174.423203 103.677498,174.748291 103.458069,174.909485 
	C103.202515,175.097183 102.841629,175.141464 102.198669,175.386688 
z"/>
<path fill="#AC7825" opacity="1.000000" stroke="none" 
	d="
M97.114143,171.760406 
	C97.128464,171.584854 97.536049,171.487640 98.118057,171.532684 
	C98.030785,171.729523 97.769096,171.784149 97.114143,171.760406 
z"/>
<path fill="#B6873A" opacity="1.000000" stroke="none" 
	d="
M38.453072,29.132439 
	C38.345093,28.919172 38.482075,28.589298 38.874451,28.150909 
	C38.985905,28.366873 38.841969,28.691351 38.453072,29.132439 
z"/>
</svg>